<svg xmlns="http://www.w3.org/2000/svg" width="512" height="512" viewBox="18 18 72 72"><rect x="18" y="18" width="72" height="72" fill="#101010"/><g transform="translate(54 54) scale(1.08) rotate(14) translate(-54 -54)"><path d="M42.71,69.90A19.5,19.5 0 1,1 65.29,69.90Z" fill="#1B2533"/><path d="M54,54L32.97,58.47" stroke="#A6C8FF" stroke-width="6" stroke-linecap="round"/><path d="M54,54L75.03,58.47" stroke="#A6C8FF" stroke-width="6" stroke-linecap="round"/><path d="M54,54L54.00,70.65" stroke="#A6C8FF" stroke-width="9.5" stroke-linecap="round"/><path d="M41.79,72.90A22.5,22.5 0 1,1 66.21,72.90Z" fill="none" stroke="#A6C8FF" stroke-width="7" stroke-linejoin="round"/><path d="M51.75,48.00h4.50a6.0,6.0 0 0,1 0,12h-4.50a6.0,6.0 0 0,1 0,-12z" fill="#7EDB8A"/></g></svg>