<svg xmlns="http://www.w3.org/2000/svg" x="0px" y="0px"
width="30" height="30"
viewBox="0 0 171 171"
style=" fill:#000000;"><g transform="translate(-25.7987,-25.7987) scale(1.3,1.3)"><g fill="none" fill-rule="nonzero" stroke="none" stroke-width="1" stroke-linecap="butt" stroke-linejoin="miter" stroke-miterlimit="10" stroke-dasharray="" stroke-dashoffset="0" font-family="none" font-weight="none" font-size="none" text-anchor="none" style="mix-blend-mode: normal"><path d="M0,171.99132v-171.99132h171.99132v171.99132z" fill="none"></path><g id="original-icon" fill="#2394e4"><path d="M85.5,21.48633c-1.36533,0 -2.73099,0.51834 -3.77124,1.55859l-19.73291,19.73291c-2.65763,2.6505 -0.77685,7.18746 2.97803,7.19458h13.40112v49.77759c-0.03634,2.56953 1.31367,4.95958 3.53309,6.25495c2.21942,1.29537 4.96439,1.29537 7.18381,0c2.21942,-1.29537 3.56943,-3.68542 3.53309,-6.25495v-49.77759h13.41504c3.75487,0 5.63565,-4.53695 2.97803,-7.19458l-19.74682,-19.73291c-1.04381,-1.04025 -2.40591,-1.55859 -3.77124,-1.55859zM28.5,121.125c-3.93487,0.00039 -7.12461,3.19013 -7.125,7.125v14.25c-0.03634,2.56953 1.31367,4.95958 3.53309,6.25495c2.21942,1.29537 4.96439,1.29537 7.18381,0c2.21942,-1.29537 3.56943,-3.68542 3.53309,-6.25495v-7.125h42.75v7.125c0,3.933 3.192,7.125 7.125,7.125c3.933,0 7.125,-3.192 7.125,-7.125v-7.125h42.75v7.125c-0.03634,2.56953 1.31367,4.95958 3.53309,6.25495c2.21942,1.29537 4.96439,1.29537 7.18381,0c2.21942,-1.29537 3.56943,-3.68542 3.53309,-6.25495v-14.25c-0.00039,-3.93487 -3.19013,-7.12461 -7.125,-7.125z"></path></g></g></g></svg>