<svg xmlns="http://www.w3.org/2000/svg" x="0px" y="0px"
width="30" height="30"
viewBox="0 0 171 171"
style=" fill:#000000;"><g transform="translate(-25.7987,-25.7987) scale(1.3,1.3)"><g fill="none" fill-rule="nonzero" stroke="none" stroke-width="1" stroke-linecap="butt" stroke-linejoin="miter" stroke-miterlimit="10" stroke-dasharray="" stroke-dashoffset="0" font-family="none" font-weight="none" font-size="none" text-anchor="none" style="mix-blend-mode: normal"><path d="M0,171.99132v-171.99132h171.99132v171.99132z" fill="none"></path><g fill="#2394e4"><path d="M85.38867,21.27759c-3.92955,0.06143 -7.06748,3.29275 -7.01367,7.22241v49.98633h-13.40112c-3.75487,0 -5.63565,4.53696 -2.97803,7.19458l19.73291,19.73291c2.0805,2.0805 5.45486,2.0805 7.54248,0l19.74682,-19.73291c2.65762,-2.65763 0.77685,-7.19458 -2.97803,-7.19458h-13.41504v-49.98633c0.02637,-1.92589 -0.72801,-3.78043 -2.09126,-5.14106c-1.36325,-1.36063 -3.21924,-2.11144 -5.14507,-2.08136zM28.5,121.125c-3.93487,0.00039 -7.12461,3.19013 -7.125,7.125v14.25c-0.03634,2.56953 1.31367,4.95958 3.53309,6.25495c2.21942,1.29537 4.96439,1.29537 7.18381,0c2.21942,-1.29537 3.56943,-3.68542 3.53309,-6.25495v-7.125h42.75v7.125c0,3.933 3.192,7.125 7.125,7.125c3.933,0 7.125,-3.192 7.125,-7.125v-7.125h42.75v7.125c-0.03634,2.56953 1.31367,4.95958 3.53309,6.25495c2.21942,1.29537 4.96439,1.29537 7.18381,0c2.21942,-1.29537 3.56943,-3.68542 3.53309,-6.25495v-14.25c-0.00039,-3.93487 -3.19013,-7.12461 -7.125,-7.125z"></path></g></g></g></svg>