<svg xmlns="http://www.w3.org/2000/svg" width="50" height="50" viewBox="0 0 171 171" style="fill:#000"><g fill="none" stroke-miterlimit="10" font-family="none" font-weight="none" font-size="none" text-anchor="none" style="mix-blend-mode:normal"><path d="M0 172V0h172v172z"/><path d="M72.3 13.2a6.5 6.5 0 0 0-5.7 6.5v6.6c0 3.6 2.8 6.5 6.4 6.6h12.5v6.6h19.7v-6.6h13.2a6.5 6.5 0 0 0 6.6-6.6v-6.6a6.5 6.5 0 0 0-6.6-6.5H72.3zM65.8 46c-1.3 0-2.6 1.4-4 2L44 65.9H32.9c-2 0-2.6.7-4.5 2-2 1.3-2 2.6-2 4.5v13.2h-6.7V73c0-3.3-2.6-6.6-6.5-6.6H6.6C4 65.7 0 68.4 0 73v46c0 3.3 2.6 6.6 6.6 6.6h6.6c3.2 0 6.5-2.6 6.5-6.6v-13.2h6.6V119c0 3.3 2.6 6.6 6.6 6.6h10.5l18.5 17c1.3 1.3 2.6 2 3.9 2h46c2 0 3.2-.7 4.5-2l26.3-26.3c1.3-1.3 2-2.6 2-3.9v-6.6h6.7v12.6c0 3.3 2.6 6.6 6.5 6.6h6.6c3.3 0 6.6-2.7 6.6-6.6v-46c0-3.3-3.3-6.6-6-6.6h-6.5a6.6 6.6 0 0 0-6.6 6.5v13.2h-6.6V52.6c0-3.3-2.6-6.6-6.6-6.6zm25 20.4h15.7L90.8 92.7h15V92h.7l-.7.6-29.5 38.2 11.3-31h-14z" fill="#000"/></g></svg>