<svg xmlns="http://www.w3.org/2000/svg" x="0px" y="0px"
width="50" height="50"
viewBox="0 0 171 171"
style=" fill:#000000;"><g fill="none" fill-rule="nonzero" stroke="none" stroke-width="1" stroke-linecap="butt" stroke-linejoin="miter" stroke-miterlimit="10" stroke-dasharray="" stroke-dashoffset="0" font-family="none" font-weight="none" font-size="none" text-anchor="none" style="mix-blend-mode: normal"><path d="M0,171.99132v-171.99132h171.99132v171.99132z" fill="none"></path><g fill="#000000"><path d="M72.34615,13.15385c-3.33984,0.38537 -5.83188,3.23708 -5.75481,6.57692v6.57692c-0.05138,3.57107 2.80033,6.52554 6.37139,6.57692h12.53726v6.57692h19.73077v-6.57692h13.15385c1.747,0.02569 3.44261,-0.66797 4.67578,-1.90114c1.23317,-1.23317 1.92683,-2.92879 1.90114,-4.67578v-6.57692c0.02569,-1.747 -0.66797,-3.4426 -1.90114,-4.67578c-1.23317,-1.23317 -2.92879,-1.92683 -4.67578,-1.90115h-45.42187c-0.20553,0 -0.41106,0 -0.61659,0zM65.76923,46.03846c-1.31025,0 -2.5948,1.38732 -3.90505,2.05529l-17.88101,17.67548h-11.09856c-1.97821,0 -2.54342,0.74504 -4.52163,2.05529c-1.97821,1.31025 -2.05529,2.54342 -2.05529,4.52163v13.15385h-6.57692v-12.53726c0,-3.28846 -2.62049,-6.57692 -6.57692,-6.57692h-6.57692c-2.62049,-0.66797 -6.57692,1.97821 -6.57692,6.57692v46.03846c0,3.28846 2.6205,6.57692 6.57692,6.57692h6.57692c3.28846,0 6.57692,-2.62049 6.57692,-6.57692v-13.15385h6.57692v13.15385c0,3.28846 2.6205,6.57692 6.57692,6.57692h10.48197l18.4976,17.05889c1.31025,1.31025 2.5948,2.05529 3.90505,2.05529h46.03846c1.97821,0 3.21139,-0.74504 4.52163,-2.05529l26.30769,-26.30769c1.31025,-1.31025 2.05529,-2.5948 2.05529,-3.90505v-6.57692h6.57692v12.53726c0,3.28846 2.6205,6.57692 6.57692,6.57692h6.57692c3.28846,0 6.57692,-2.62049 6.57692,-6.57692v-46.03846c0,-3.28846 -3.33984,-6.57692 -5.96034,-6.57692h-6.57692c-3.28846,0 -6.57692,2.6205 -6.57692,6.57692v13.15385h-6.57692v-32.88462c0,-3.28846 -2.62049,-6.57692 -6.57692,-6.57692zM90.84375,66.38582h15.62019l-15.62019,26.30769h15.00361v-0.61659h0.61659l-0.61659,0.61659l-29.59615,38.22837l11.30409,-31.03486h-13.97596z"></path></g></g></svg>