<?xml version='1.0' encoding='utf-8'?>
<svg xmlns="http://www.w3.org/2000/svg" version="1.1" id="Layer_1" x="0px" y="0px" viewBox="0 0 3000 2374.48" style="enable-background:new 0 0 3000 2374.48;"> <style type="text/css"> .st0{fill:#5C5D60;} .st1{fill:url(#SVGID_1_);} .st2{fill:url(#SVGID_2_);} .st3{fill:url(#SVGID_3_);} .st4{fill:url(#SVGID_4_);} .st5{fill:url(#SVGID_5_);} .st6{fill:url(#SVGID_6_);} .st7{fill:url(#SVGID_7_);} .st8{fill:#464A4C;} .st9{fill:url(#SVGID_8_);} .st10{fill:#B7B7B7;} .st11{fill:url(#SVGID_9_);} .st12{fill:url(#SVGID_10_);} .st13{fill:url(#SVGID_11_);} .st14{fill:url(#SVGID_12_);} .st15{fill:url(#SVGID_13_);} .st16{fill:url(#SVGID_14_);} .st17{fill:url(#SVGID_15_);} .st18{fill:url(#SVGID_16_);} .st19{fill:url(#SVGID_17_);} .st20{fill:url(#SVGID_18_);} .st21{fill:url(#SVGID_19_);} .st22{fill:url(#SVGID_20_);} .st23{fill:url(#SVGID_21_);} .st24{fill:url(#SVGID_22_);} .st25{fill:url(#SVGID_23_);} .st26{fill:url(#SVGID_24_);} .st27{fill:url(#SVGID_25_);} .st28{fill:url(#SVGID_26_);} .st29{fill:url(#SVGID_27_);} .st30{fill:url(#SVGID_28_);} .st31{fill:url(#SVGID_29_);} .st32{fill:url(#SVGID_30_);} .st33{fill:url(#SVGID_31_);} .st34{fill:url(#SVGID_32_);} .st35{fill:url(#SVGID_33_);} .st36{fill:url(#SVGID_34_);} .st37{fill:url(#SVGID_35_);} .st38{fill:url(#SVGID_36_);} .st39{fill:url(#SVGID_37_);} .st40{fill:url(#SVGID_38_);} .st41{fill:url(#SVGID_39_);} .st42{fill:url(#SVGID_40_);} .st43{fill:#E5EAED;} .st44{fill:#BDBFC1;} .st45{fill:url(#SVGID_41_);} .st46{fill:url(#SVGID_42_);} .st47{fill:url(#SVGID_43_);} .st48{fill:url(#SVGID_44_);} .st49{fill:url(#SVGID_45_);} .st50{fill:url(#SVGID_46_);} .st51{fill:url(#SVGID_47_);} .st52{fill:url(#SVGID_48_);} .st53{fill:url(#SVGID_49_);} .st54{fill:url(#SVGID_50_);} .st55{fill:url(#SVGID_51_);} .st56{fill:url(#SVGID_52_);} </style> <rect x="1436.79" y="341.94" class="st0" width="98.47" height="1076.95"/> <linearGradient id="SVGID_1_" gradientUnits="userSpaceOnUse" x1="1486.0184" y1="964.546" x2="1486.0184" y2="2023.5913" gradientTransform="matrix(1 0 0 -1 0 2374.4785)"> <stop offset="0.0238" style="stop-color:#595C62"/> <stop offset="0.1132" style="stop-color:#83858A"/> <stop offset="0.1926" style="stop-color:#A9B1BD"/> <stop offset="0.2294" style="stop-color:#AEB9C7"/> <stop offset="0.2643" style="stop-color:#DCE1E6"/> <stop offset="0.6406" style="stop-color:#9CA3AF"/> <stop offset="0.8484" style="stop-color:#83858A"/> <stop offset="1" style="stop-color:#9399A1"/> </linearGradient> <rect x="1445.74" y="350.89" class="st1" width="80.56" height="1059.05"/> <path class="st0" d="M439.21,1418.88v-219.49c0-41.83,10.92-83.16,31.57-119.53l119.53-210.6c12.26-21.6,18.74-46.13,18.74-70.96 V341.94h98.47v456.37c0,41.83-10.92,83.16-31.57,119.53l-119.53,210.6c-12.26,21.6-18.74,46.13-18.74,70.96v219.49L439.21,1418.88 L439.21,1418.88z"/> <linearGradient id="SVGID_2_" gradientUnits="userSpaceOnUse" x1="573.359" y1="964.546" x2="573.359" y2="2023.5913" gradientTransform="matrix(1 0 0 -1 0 2374.4785)"> <stop offset="0.0238" style="stop-color:#595C62"/> <stop offset="0.1132" style="stop-color:#83858A"/> <stop offset="0.1926" style="stop-color:#A9B1BD"/> <stop offset="0.2294" style="stop-color:#AEB9C7"/> <stop offset="0.2643" style="stop-color:#DCE1E6"/> <stop offset="0.6406" style="stop-color:#9CA3AF"/> <stop offset="0.8484" style="stop-color:#83858A"/> <stop offset="1" style="stop-color:#9399A1"/> </linearGradient> <path class="st2" d="M528.72,1409.93h-80.56v-210.54c0-40.28,10.5-80.09,30.41-115.12l119.53-210.6 c13.01-22.95,19.9-48.99,19.9-75.37V350.89h80.56v447.42c0,40.28-10.5,80.09-30.41,115.12l-119.53,210.6 c-13.01,22.95-19.9,48.99-19.9,75.37V1409.93z"/> <g> <linearGradient id="SVGID_3_" gradientUnits="userSpaceOnUse" x1="1489.7178" y1="280.8048" x2="1489.7178" y2="961.6516" gradientTransform="matrix(1 0 0 -1 0 2374.4785)"> <stop offset="0" style="stop-color:#8B919A"/> <stop offset="0.0782" style="stop-color:#56575B"/> <stop offset="0.6723" style="stop-color:#8F99A5"/> <stop offset="1" style="stop-color:#83858A"/> </linearGradient> <path class="st3" d="M1722.93,2093.67h-457.57c-46.58,0-87.31-33-97.24-79.04l-34.55-159.99c-6.62-30.73-10.32-62.09-11.04-93.66 l-6.24-284.39c-0.78-35.15,26.11-63.76,60.06-63.76h626.72c33.93,0,60.81,28.61,60.06,63.76l-6.42,291.64 c-0.54,24.05-2.8,48.01-6.8,71.67l-28.79,170.23C1812.95,2058.26,1771.24,2093.67,1722.93,2093.67z"/> <path class="st0" d="M1722.93,2096.6h-457.57c-47.83,0-89.93-34.19-100.11-81.34l-34.55-159.99c-6.65-30.85-10.41-62.57-11.1-94.2 l-6.24-284.39c-0.39-18.26,6.24-35.33,18.65-48.01c11.82-12.08,27.54-18.74,44.31-18.74h626.72c16.77,0,32.49,6.65,44.31,18.74 c12.44,12.71,19.07,29.78,18.65,48.04l-6.42,291.64c-0.54,24.08-2.83,48.34-6.83,72.09l-28.79,170.23 C1815.55,2060.46,1773.06,2096.6,1722.93,2096.6z M1176.33,1415.78c-15.19,0-29.42,6.03-40.13,16.98 c-11.31,11.58-17.37,27.12-16.98,43.8l6.24,284.39c0.69,31.27,4.39,62.6,10.98,93.1l34.55,159.99 c9.61,44.46,49.29,76.71,94.38,76.71h457.57c47.26,0,87.31-34.1,95.27-81.07l28.79-170.23c3.97-23.45,6.24-47.41,6.77-71.22 l6.42-291.64c0.36-16.68-5.67-32.23-16.98-43.8c-10.71-10.95-24.94-16.98-40.13-16.98h-626.75V1415.78z"/> </g> <linearGradient id="SVGID_4_" gradientUnits="userSpaceOnUse" x1="1489.7196" y1="293.486" x2="1489.7196" y2="948.9108" gradientTransform="matrix(1 0 0 -1 0 2374.4785)"> <stop offset="0" style="stop-color:#9399A1"/> <stop offset="0.1576" style="stop-color:#83858A"/> <stop offset="0.3594" style="stop-color:#9CA3AF"/> <stop offset="0.5567" style="stop-color:#CAC9CA"/> <stop offset="0.5726" style="stop-color:#D0D8DD"/> <stop offset="0.5952" style="stop-color:#E0E8ED"/> <stop offset="0.7834" style="stop-color:#C3CBD4"/> <stop offset="0.8878" style="stop-color:#AEB9C7"/> <stop offset="1" style="stop-color:#A9B1BD"/> </linearGradient> <path class="st4" d="M1265.37,2080.99c-40.52,0-76.21-29.03-84.83-69.02l-34.55-159.99c-6.47-29.9-10.09-60.6-10.74-91.25 l-6.24-284.39c-0.3-14.02,4.74-27.09,14.2-36.76c8.86-9.04,20.62-14.02,33.15-14.02h626.72c12.53,0,24.29,4.98,33.15,14.02 c9.46,9.7,14.53,22.74,14.2,36.76l-6.42,291.64c-0.51,23.33-2.74,46.82-6.62,69.82l-28.79,170.23 c-7.13,42.25-43.15,72.95-85.64,72.95H1265.37z"/> <g> <linearGradient id="SVGID_5_" gradientUnits="userSpaceOnUse" x1="2543.1841" y1="223.396" x2="2543.1841" y2="2036.3022" gradientTransform="matrix(1 0 0 -1 0 2374.4785)"> <stop offset="0" style="stop-color:#8B919A"/> <stop offset="0.0782" style="stop-color:#56575B"/> <stop offset="0.6723" style="stop-color:#8F99A5"/> <stop offset="1" style="stop-color:#83858A"/> </linearGradient> <path class="st5" d="M2405.18,338.18h359.46c49.02,0,89.28,38.76,91.04,87.78c8.35,231.57,30.26,844.9,30.26,898.31v714.53 c0,62-50.28,112.28-112.28,112.28h-460.94c-62,0-112.28-50.28-112.28-112.28v-710.48l92.71-889.18 C2299.11,381.77,2347.48,338.18,2405.18,338.18z"/> <path class="st0" d="M2773.65,2154.01h-460.94c-63.53,0-115.2-51.68-115.2-115.2v-710.63v-0.15l92.71-889.18 c6.15-59.05,55.59-103.6,114.97-103.6h359.46c50.84,0,92.11,39.8,93.96,90.59c9.1,252.49,30.26,845.46,30.26,898.43v714.53 C2888.83,2102.33,2837.15,2154.01,2773.65,2154.01z M2203.36,1328.47v710.33c0,60.3,49.05,109.36,109.36,109.36h460.94 c60.3,0,109.36-49.05,109.36-109.36v-714.53c0-52.84-21.16-645.76-30.26-898.22c-1.73-47.65-40.4-84.95-88.11-84.95h-359.46 c-56.36,0-103.3,42.28-109.15,98.35L2203.36,1328.47z"/> </g> <linearGradient id="SVGID_6_" gradientUnits="userSpaceOnUse" x1="2543.1841" y1="236.1073" x2="2543.1841" y2="2023.6212" gradientTransform="matrix(1 0 0 -1 0 2374.4785)"> <stop offset="0" style="stop-color:#9399A1"/> <stop offset="0.1463" style="stop-color:#83858A"/> <stop offset="0.2868" style="stop-color:#9CA3AF"/> <stop offset="0.4569" style="stop-color:#CAC9CA"/> <stop offset="0.4728" style="stop-color:#D0D8DD"/> <stop offset="0.5023" style="stop-color:#E0E8ED"/> <stop offset="0.6474" style="stop-color:#C3CBD4"/> <stop offset="0.7993" style="stop-color:#AEB9C7"/> <stop offset="1" style="stop-color:#A9B1BD"/> </linearGradient> <path class="st6" d="M2312.71,2138.37c-54.9,0-99.6-44.67-99.6-99.57v-709.82l92.65-888.52c5.31-51.08,48.07-89.6,99.42-89.6h359.46 c42.4,0,76.8,33.18,78.35,75.55c7.1,196.93,30.26,843.7,30.26,897.86v714.53c0,54.9-44.67,99.57-99.57,99.57L2312.71,2138.37 L2312.71,2138.37z"/> <g> <g> <linearGradient id="SVGID_7_" gradientUnits="userSpaceOnUse" x1="1486.0332" y1="834.5113" x2="1486.0332" y2="902.6018" gradientTransform="matrix(1 0 0 -1 0 2374.4785)"> <stop offset="0.0125" style="stop-color:#3C3B3D"/> <stop offset="0.2143" style="stop-color:#4B4B4D"/> <stop offset="0.2891" style="stop-color:#5B5C5E"/> <stop offset="0.8129" style="stop-color:#8E9093"/> <stop offset="1" style="stop-color:#646567"/> </linearGradient> <path class="st7" d="M1214.55,1539.97c-18.77,0-34.05-15.28-34.05-34.05c0-18.77,15.28-34.05,34.05-34.05h542.96 c18.77,0,34.05,15.28,34.05,34.05c0,18.77-15.28,34.05-34.05,34.05H1214.55z"/> <path class="st8" d="M1757.49,1473.25c18.02,0,32.64,14.62,32.64,32.64c0,18.02-14.62,32.64-32.64,32.64h-542.94 c-18.02,0-32.64-14.62-32.64-32.64c0-18.02,14.62-32.64,32.64-32.64H1757.49L1757.49,1473.25z M1757.49,1470.44h-542.94 c-19.54,0-35.45,15.9-35.45,35.45s15.9,35.45,35.45,35.45h542.96c19.54,0,35.45-15.9,35.45-35.45S1777.06,1470.44,1757.49,1470.44 L1757.49,1470.44z"/> </g> <linearGradient id="SVGID_8_" gradientUnits="userSpaceOnUse" x1="1486.0333" y1="842.5676" x2="1486.0333" y2="894.6052" gradientTransform="matrix(1 0 0 -1 0 2374.4785)"> <stop offset="0.0193" style="stop-color:#5B5C5E"/> <stop offset="0.8129" style="stop-color:#8E9093"/> </linearGradient> <path class="st9" d="M1188.89,1505.89L1188.89,1505.89c0-14.35,11.64-26.02,26.02-26.02h542.25c14.35,0,26.02,11.64,26.02,26.02 l0,0c0,14.35-11.64,26.02-26.02,26.02h-542.25C1200.53,1531.91,1188.89,1520.27,1188.89,1505.89z"/> <path class="st10" d="M1188.89,1505.89c-0.27-6.5,2-13.19,6.39-18.26s10.8-8.44,17.66-9.13c13.22-0.63,26.05-0.95,39.09-1.43 l78,0.03h155.99h155.99h78c13.04,0.48,25.9,0.81,39.09,1.43c6.83,0.69,13.28,4.06,17.63,9.13c4.39,5.07,6.68,11.76,6.42,18.26 c-0.27-6.5-3.07-12.77-7.58-17.16c-4.45-4.48-10.56-7.1-16.68-7.28c-12.8,0.27-25.93,0.84-38.88,1.25h-78h-155.99h-155.99 l-77.97-0.03c-12.95-0.39-26.11-0.98-38.88-1.25c-6.12,0.18-12.23,2.8-16.68,7.28C1191.96,1493.15,1189.16,1499.39,1188.89,1505.89 z"/> </g> <g> <g> <linearGradient id="SVGID_9_" gradientUnits="userSpaceOnUse" x1="1486.0332" y1="716.9788" x2="1486.0332" y2="785.0693" gradientTransform="matrix(1 0 0 -1 0 2374.4785)"> <stop offset="0.0125" style="stop-color:#3C3B3D"/> <stop offset="0.2143" style="stop-color:#4B4B4D"/> <stop offset="0.2891" style="stop-color:#5B5C5E"/> <stop offset="0.8129" style="stop-color:#8E9093"/> <stop offset="1" style="stop-color:#646567"/> </linearGradient> <path class="st11" d="M1214.55,1657.5c-18.77,0-34.05-15.28-34.05-34.05c0-18.77,15.28-34.05,34.05-34.05h542.96 c18.77,0,34.05,15.28,34.05,34.05c0,18.77-15.28,34.05-34.05,34.05H1214.55z"/> <path class="st8" d="M1757.49,1590.81c18.02,0,32.64,14.62,32.64,32.64l0,0c0,18.02-14.62,32.64-32.64,32.64h-542.94 c-18.02,0-32.64-14.62-32.64-32.64l0,0c0-18.02,14.62-32.64,32.64-32.64H1757.49L1757.49,1590.81z M1757.49,1588.01h-542.94 c-19.54,0-35.45,15.9-35.45,35.45s15.9,35.45,35.45,35.45h542.96c19.54,0,35.45-15.9,35.45-35.45S1777.06,1588.01,1757.49,1588.01 L1757.49,1588.01z"/> </g> <linearGradient id="SVGID_10_" gradientUnits="userSpaceOnUse" x1="1486.0333" y1="725.0054" x2="1486.0333" y2="777.043" gradientTransform="matrix(1 0 0 -1 0 2374.4785)"> <stop offset="0.0193" style="stop-color:#5B5C5E"/> <stop offset="0.8129" style="stop-color:#8E9093"/> </linearGradient> <path class="st12" d="M1188.89,1623.45L1188.89,1623.45c0-14.35,11.64-26.02,26.02-26.02h542.25c14.35,0,26.02,11.64,26.02,26.02 l0,0c0,14.35-11.64,26.02-26.02,26.02h-542.25C1200.53,1649.47,1188.89,1637.81,1188.89,1623.45z"/> <path class="st10" d="M1188.89,1623.45c-0.27-6.5,2-13.19,6.39-18.26s10.8-8.44,17.66-9.13c13.22-0.63,26.05-0.95,39.09-1.43 l78,0.03h155.99h155.99h78c13.04,0.48,25.9,0.81,39.09,1.43c6.83,0.69,13.28,4.06,17.63,9.13c4.39,5.07,6.68,11.76,6.42,18.26 c-0.27-6.5-3.07-12.77-7.58-17.16c-4.45-4.48-10.56-7.1-16.68-7.28c-12.8,0.27-25.93,0.84-38.88,1.25h-78h-155.99h-155.99 l-77.97-0.03c-12.95-0.39-26.11-0.98-38.88-1.25c-6.12,0.18-12.23,2.8-16.68,7.28C1191.96,1610.71,1189.16,1616.95,1188.89,1623.45 z"/> </g> <g> <g> <linearGradient id="SVGID_11_" gradientUnits="userSpaceOnUse" x1="1486.0332" y1="600.8189" x2="1486.0332" y2="668.9094" gradientTransform="matrix(1 0 0 -1 0 2374.4785)"> <stop offset="0.0125" style="stop-color:#3C3B3D"/> <stop offset="0.2143" style="stop-color:#4B4B4D"/> <stop offset="0.2891" style="stop-color:#5B5C5E"/> <stop offset="0.8129" style="stop-color:#8E9093"/> <stop offset="1" style="stop-color:#646567"/> </linearGradient> <path class="st13" d="M1214.55,1773.66c-18.77,0-34.05-15.28-34.05-34.05c0-18.77,15.28-34.05,34.05-34.05h542.96 c18.77,0,34.05,15.28,34.05,34.05c0,18.77-15.28,34.05-34.05,34.05H1214.55z"/> <path class="st8" d="M1757.49,1706.94c18.02,0,32.64,14.62,32.64,32.64c0,18.02-14.62,32.64-32.64,32.64h-542.94 c-18.02,0-32.64-14.62-32.64-32.64c0-18.02,14.62-32.64,32.64-32.64H1757.49L1757.49,1706.94z M1757.49,1704.14h-542.94 c-19.54,0-35.45,15.9-35.45,35.45s15.9,35.45,35.45,35.45h542.96c19.54,0,35.45-15.9,35.45-35.45S1777.06,1704.14,1757.49,1704.14 L1757.49,1704.14z"/> </g> <linearGradient id="SVGID_12_" gradientUnits="userSpaceOnUse" x1="1486.0333" y1="608.8454" x2="1486.0333" y2="660.8829" gradientTransform="matrix(1 0 0 -1 0 2374.4785)"> <stop offset="0.0193" style="stop-color:#5B5C5E"/> <stop offset="0.8129" style="stop-color:#8E9093"/> </linearGradient> <path class="st14" d="M1188.89,1739.61L1188.89,1739.61c0-14.35,11.64-26.02,26.02-26.02h542.25c14.35,0,26.02,11.64,26.02,26.02 l0,0c0,14.35-11.64,26.02-26.02,26.02h-542.25C1200.53,1765.6,1188.89,1753.97,1188.89,1739.61z"/> <path class="st10" d="M1188.89,1739.61c-0.27-6.5,2-13.19,6.39-18.26s10.8-8.44,17.66-9.13c13.22-0.63,26.05-0.95,39.09-1.43 l78,0.03h155.99h155.99h78c13.04,0.48,25.9,0.81,39.09,1.43c6.83,0.69,13.28,4.06,17.63,9.13c4.39,5.07,6.68,11.76,6.42,18.26 c-0.27-6.5-3.07-12.77-7.58-17.16c-4.45-4.48-10.56-7.1-16.68-7.28c-12.8,0.27-25.93,0.84-38.88,1.25h-78h-155.99h-155.99 l-77.97-0.06c-12.95-0.39-26.11-0.98-38.88-1.25c-6.12,0.18-12.23,2.8-16.68,7.28C1191.96,1726.84,1189.16,1733.08,1188.89,1739.61 z"/> </g> <g> <g> <linearGradient id="SVGID_13_" gradientUnits="userSpaceOnUse" x1="1486.0183" y1="473.4996" x2="1486.0183" y2="541.5901" gradientTransform="matrix(1 0 0 -1 0 2374.4785)"> <stop offset="0.0125" style="stop-color:#3C3B3D"/> <stop offset="0.2143" style="stop-color:#4B4B4D"/> <stop offset="0.2891" style="stop-color:#5B5C5E"/> <stop offset="0.8129" style="stop-color:#8E9093"/> <stop offset="1" style="stop-color:#646567"/> </linearGradient> <path class="st15" d="M1227.14,1900.98c-18.77,0-34.05-15.28-34.05-34.05c0-18.77,15.28-34.05,34.05-34.05h517.75 c18.77,0,34.05,15.28,34.05,34.05c0,18.77-15.28,34.05-34.05,34.05H1227.14z"/> <path class="st8" d="M1744.89,1834.29c18.02,0,32.64,14.62,32.64,32.64l0,0c0,18.02-14.62,32.64-32.64,32.64h-517.75 c-18.02,0-32.64-14.62-32.64-32.64l0,0c0-18.02,14.62-32.64,32.64-32.64H1744.89L1744.89,1834.29z M1744.89,1831.49h-517.75 c-19.54,0-35.45,15.9-35.45,35.45s15.9,35.45,35.45,35.45h517.75c19.54,0,35.45-15.9,35.45-35.45S1764.44,1831.49,1744.89,1831.49 L1744.89,1831.49z"/> </g> <linearGradient id="SVGID_14_" gradientUnits="userSpaceOnUse" x1="1486.0333" y1="481.5261" x2="1486.0333" y2="533.5636" gradientTransform="matrix(1 0 0 -1 0 2374.4785)"> <stop offset="0.0193" style="stop-color:#5B5C5E"/> <stop offset="0.8129" style="stop-color:#8E9093"/> </linearGradient> <path class="st16" d="M1201.48,1866.93L1201.48,1866.93c0-14.35,11.64-26.02,26.02-26.02h517.07c14.35,0,26.02,11.64,26.02,26.02 l0,0c0,14.35-11.64,26.02-26.02,26.02H1227.5C1213.12,1892.95,1201.48,1881.32,1201.48,1866.93z"/> <path class="st10" d="M1201.48,1866.93c-0.24-6.24,1.82-12.65,5.88-17.63c4.03-5.01,10.03-8.53,16.53-9.55 c3.34-0.51,6.42-0.45,9.52-0.6l9.37-0.33l18.71-0.69l74.83-0.03h149.7h149.7h74.83l18.71,0.66l9.37,0.33 c3.1,0.15,6.21,0.09,9.55,0.6c6.53,1.01,12.5,4.57,16.53,9.58c4.06,5.01,6.12,11.4,5.88,17.63c-0.27-6.24-2.86-12.23-7.07-16.59 c-4.15-4.42-9.85-7.22-15.72-7.7c-2.86-0.24-6.03,0.03-9.16,0.09l-9.37,0.33l-18.71,0.66h-74.83h-149.7h-149.7l-74.83-0.03 l-18.71-0.69l-9.37-0.33c-3.1-0.09-6.3-0.36-9.16-0.09c-5.88,0.48-11.58,3.31-15.72,7.73 C1204.35,1854.7,1201.75,1860.7,1201.48,1866.93z"/> </g> <g> <g> <linearGradient id="SVGID_15_" gradientUnits="userSpaceOnUse" x1="1486.0034" y1="356.8622" x2="1486.0034" y2="424.9527" gradientTransform="matrix(1 0 0 -1 0 2374.4785)"> <stop offset="0.0125" style="stop-color:#3C3B3D"/> <stop offset="0.2143" style="stop-color:#4B4B4D"/> <stop offset="0.2891" style="stop-color:#5B5C5E"/> <stop offset="0.8129" style="stop-color:#8E9093"/> <stop offset="1" style="stop-color:#646567"/> </linearGradient> <path class="st17" d="M1246.72,2017.62c-18.77,0-34.05-15.28-34.05-34.05c0-18.77,15.28-34.05,34.05-34.05h478.57 c18.77,0,34.05,15.28,34.05,34.05c0,18.77-15.28,34.05-34.05,34.05H1246.72z"/> <path class="st8" d="M1725.32,1950.9c18.02,0,32.64,14.62,32.64,32.64l0,0c0,18.02-14.62,32.64-32.64,32.64h-478.6 c-18.02,0-32.64-14.62-32.64-32.64l0,0c0-18.02,14.62-32.64,32.64-32.64H1725.32L1725.32,1950.9z M1725.32,1948.09h-478.6 c-19.54,0-35.45,15.9-35.45,35.45s15.9,35.45,35.45,35.45h478.57c19.54,0,35.45-15.9,35.45-35.45S1744.86,1948.09,1725.32,1948.09 L1725.32,1948.09z"/> </g> <linearGradient id="SVGID_16_" gradientUnits="userSpaceOnUse" x1="1486.0333" y1="364.8889" x2="1486.0333" y2="416.9264" gradientTransform="matrix(1 0 0 -1 0 2374.4785)"> <stop offset="0.0193" style="stop-color:#5B5C5E"/> <stop offset="0.8129" style="stop-color:#8E9093"/> </linearGradient> <path class="st18" d="M1221.09,1983.57L1221.09,1983.57c0-14.35,11.64-26.02,26.02-26.02h477.86c14.35,0,26.02,11.64,26.02,26.02 l0,0c0,14.35-11.64,26.02-26.02,26.02h-477.89C1232.72,2009.56,1221.09,1997.92,1221.09,1983.57z"/> <path class="st10" d="M1221.09,1983.57c-0.18-5.82,1.49-11.82,5.1-16.65c3.58-4.8,8.83-8.47,14.77-10 c2.95-0.81,6.15-0.95,8.98-1.01l8.74-0.33l17.49-0.69c23.3-0.21,46.64-0.06,69.94-0.12h139.88h139.88l69.94,0.09l17.49,0.69 l8.74,0.33c2.83,0.09,6.06,0.24,9.01,1.04c5.97,1.52,11.22,5.22,14.8,10.03c3.61,4.83,5.28,10.83,5.1,16.65 c-0.3-5.82-2.48-11.49-6.27-15.72c-3.73-4.27-8.8-7.28-14.23-8.27c-2.75-0.51-5.4-0.48-8.38-0.33l-8.71,0.3l-17.49,0.69 l-69.94,0.09h-139.88h-139.88c-23.3-0.06-46.64,0.12-69.94-0.12l-17.49-0.69l-8.74-0.33c-2.98-0.15-5.64-0.21-8.38,0.33 c-5.46,0.98-10.5,4.03-14.23,8.27C1223.56,1972.08,1221.38,1977.72,1221.09,1983.57z"/> </g> <g> <g> <linearGradient id="SVGID_17_" gradientUnits="userSpaceOnUse" x1="2550.6885" y1="320.4895" x2="2550.6885" y2="388.58" gradientTransform="matrix(1 0 0 -1 0 2374.4785)"> <stop offset="0.0125" style="stop-color:#3C3B3D"/> <stop offset="0.2143" style="stop-color:#4B4B4D"/> <stop offset="0.2891" style="stop-color:#5B5C5E"/> <stop offset="0.8129" style="stop-color:#8E9093"/> <stop offset="1" style="stop-color:#646567"/> </linearGradient> <path class="st19" d="M2311.4,2053.99c-18.77,0-34.05-15.28-34.05-34.05c0-18.77,15.28-34.05,34.05-34.05h478.57 c18.77,0,34.05,15.28,34.05,34.05c0,18.77-15.28,34.05-34.05,34.05H2311.4z"/> <path class="st8" d="M2789.98,1987.3c18.02,0,32.64,14.62,32.64,32.64s-14.62,32.64-32.64,32.64H2311.4 c-18.02,0-32.64-14.62-32.64-32.64s14.62-32.64,32.64-32.64H2789.98L2789.98,1987.3z M2789.98,1984.5H2311.4 c-19.54,0-35.45,15.9-35.45,35.45s15.9,35.45,35.45,35.45h478.57c19.54,0,35.45-15.9,35.45-35.45S2809.52,1984.5,2789.98,1984.5 L2789.98,1984.5z"/> </g> <linearGradient id="SVGID_18_" gradientUnits="userSpaceOnUse" x1="2550.6882" y1="328.5161" x2="2550.6882" y2="380.5537" gradientTransform="matrix(1 0 0 -1 0 2374.4785)"> <stop offset="0.0193" style="stop-color:#5B5C5E"/> <stop offset="0.8129" style="stop-color:#8E9093"/> </linearGradient> <path class="st20" d="M2285.74,2019.94L2285.74,2019.94c0-14.35,11.64-26.02,26.02-26.02h477.86c14.35,0,26.02,11.64,26.02,26.02 l0,0c0,14.35-11.64,26.02-26.02,26.02h-477.86C2297.38,2045.96,2285.74,2034.3,2285.74,2019.94z"/> <path class="st10" d="M2285.74,2019.94c-0.18-5.82,1.49-11.82,5.1-16.65c3.58-4.8,8.83-8.47,14.77-10 c2.95-0.81,6.15-0.95,8.98-1.01l8.74-0.33l17.49-0.69c23.3-0.21,46.64-0.06,69.94-0.12h139.88h139.88l69.94,0.09l17.49,0.69 l8.74,0.33c2.83,0.09,6.06,0.24,9.01,1.04c5.97,1.52,11.22,5.22,14.8,10.03c3.61,4.83,5.28,10.83,5.1,16.65 c-0.3-5.82-2.48-11.49-6.27-15.72c-3.73-4.27-8.8-7.28-14.23-8.27c-2.75-0.51-5.4-0.48-8.38-0.33l-8.74,0.33l-17.49,0.69 l-69.94,0.09h-139.88h-139.88c-23.3-0.06-46.64,0.12-69.94-0.12l-17.49-0.69l-8.74-0.33c-2.98-0.15-5.64-0.21-8.38,0.33 c-5.46,0.98-10.5,4.03-14.23,8.27C2288.22,2008.46,2286.04,2014.13,2285.74,2019.94z"/> </g> <g> <g> <linearGradient id="SVGID_19_" gradientUnits="userSpaceOnUse" x1="2550.6885" y1="443.6316" x2="2550.6885" y2="511.7221" gradientTransform="matrix(1 0 0 -1 0 2374.4785)"> <stop offset="0.0125" style="stop-color:#3C3B3D"/> <stop offset="0.2143" style="stop-color:#4B4B4D"/> <stop offset="0.2891" style="stop-color:#5B5C5E"/> <stop offset="0.8129" style="stop-color:#8E9093"/> <stop offset="1" style="stop-color:#646567"/> </linearGradient> <path class="st21" d="M2311.4,1930.85c-18.77,0-34.05-15.28-34.05-34.05c0-18.77,15.28-34.05,34.05-34.05h478.57 c18.77,0,34.05,15.28,34.05,34.05c0,18.77-15.28,34.05-34.05,34.05H2311.4z"/> <path class="st8" d="M2789.98,1864.13c18.02,0,32.64,14.62,32.64,32.64s-14.62,32.64-32.64,32.64H2311.4 c-18.02,0-32.64-14.62-32.64-32.64s14.62-32.64,32.64-32.64H2789.98L2789.98,1864.13z M2789.98,1861.35H2311.4 c-19.54,0-35.45,15.9-35.45,35.45s15.9,35.45,35.45,35.45h478.57c19.54,0,35.45-15.9,35.45-35.45S2809.52,1861.35,2789.98,1861.35 L2789.98,1861.35z"/> </g> <linearGradient id="SVGID_20_" gradientUnits="userSpaceOnUse" x1="2550.6882" y1="451.6581" x2="2550.6882" y2="503.6956" gradientTransform="matrix(1 0 0 -1 0 2374.4785)"> <stop offset="0.0193" style="stop-color:#5B5C5E"/> <stop offset="0.8129" style="stop-color:#8E9093"/> </linearGradient> <path class="st22" d="M2285.74,1896.8L2285.74,1896.8c0-14.35,11.64-26.02,26.02-26.02h477.86c14.35,0,26.02,11.64,26.02,26.02l0,0 c0,14.35-11.64,26.02-26.02,26.02h-477.86C2297.38,1922.82,2285.74,1911.15,2285.74,1896.8z"/> <path class="st10" d="M2285.74,1896.8c-0.18-5.82,1.49-11.82,5.1-16.65c3.58-4.8,8.83-8.47,14.77-10c2.95-0.81,6.15-0.95,8.98-1.01 l8.74-0.33l17.49-0.69c23.3-0.21,46.64-0.06,69.94-0.12h139.88h139.88l69.94,0.09l17.49,0.69l8.74,0.33 c2.83,0.09,6.06,0.24,9.01,1.04c5.97,1.52,11.22,5.22,14.8,10.03c3.61,4.83,5.28,10.83,5.1,16.65c-0.3-5.82-2.48-11.49-6.27-15.72 c-3.73-4.27-8.8-7.28-14.23-8.27c-2.75-0.51-5.4-0.48-8.38-0.33l-8.74,0.33l-17.49,0.69l-69.94,0.09h-139.88h-139.88 c-23.3-0.06-46.64,0.12-69.94-0.12l-17.49-0.69l-8.74-0.33c-2.98-0.15-5.64-0.21-8.38,0.33c-5.46,0.98-10.5,4.03-14.23,8.27 C2288.22,1885.31,2286.04,1890.98,2285.74,1896.8z"/> </g> <g> <g> <linearGradient id="SVGID_21_" gradientUnits="userSpaceOnUse" x1="2550.6885" y1="575.1879" x2="2550.6885" y2="643.2784" gradientTransform="matrix(1 0 0 -1 0 2374.4785)"> <stop offset="0.0125" style="stop-color:#3C3B3D"/> <stop offset="0.2143" style="stop-color:#4B4B4D"/> <stop offset="0.2891" style="stop-color:#5B5C5E"/> <stop offset="0.8129" style="stop-color:#8E9093"/> <stop offset="1" style="stop-color:#646567"/> </linearGradient> <path class="st23" d="M2311.4,1799.29c-18.77,0-34.05-15.28-34.05-34.05c0-18.77,15.28-34.05,34.05-34.05h478.57 c18.77,0,34.05,15.28,34.05,34.05c0,18.77-15.28,34.05-34.05,34.05H2311.4z"/> <path class="st8" d="M2789.98,1732.6c18.02,0,32.64,14.62,32.64,32.64s-14.62,32.64-32.64,32.64H2311.4 c-18.02,0-32.64-14.62-32.64-32.64s14.62-32.64,32.64-32.64H2789.98L2789.98,1732.6z M2789.98,1729.8H2311.4 c-19.54,0-35.45,15.9-35.45,35.45s15.9,35.45,35.45,35.45h478.57c19.54,0,35.45-15.9,35.45-35.45S2809.52,1729.8,2789.98,1729.8 L2789.98,1729.8z"/> </g> <linearGradient id="SVGID_22_" gradientUnits="userSpaceOnUse" x1="2550.6882" y1="583.2145" x2="2550.6882" y2="635.2521" gradientTransform="matrix(1 0 0 -1 0 2374.4785)"> <stop offset="0.0193" style="stop-color:#5B5C5E"/> <stop offset="0.8129" style="stop-color:#8E9093"/> </linearGradient> <path class="st24" d="M2285.74,1765.25L2285.74,1765.25c0-14.35,11.64-26.02,26.02-26.02h477.86c14.35,0,26.02,11.64,26.02,26.02 l0,0c0,14.35-11.64,26.02-26.02,26.02h-477.86C2297.38,1791.26,2285.74,1779.63,2285.74,1765.25z"/> <path class="st10" d="M2285.74,1765.25c-0.18-5.82,1.49-11.82,5.1-16.65c3.58-4.8,8.83-8.47,14.77-10 c2.95-0.81,6.15-0.95,8.98-1.01l8.74-0.33l17.49-0.69c23.3-0.21,46.64-0.06,69.94-0.12h139.88h139.88l69.94,0.09l17.49,0.69 l8.74,0.33c2.83,0.09,6.06,0.24,9.01,1.04c5.97,1.52,11.22,5.22,14.8,10.03c3.61,4.83,5.28,10.83,5.1,16.65 c-0.3-5.82-2.48-11.49-6.27-15.72c-3.73-4.27-8.8-7.28-14.23-8.27c-2.75-0.51-5.4-0.48-8.38-0.33l-8.74,0.33l-17.49,0.69 l-69.94,0.09h-139.88h-139.88c-23.3-0.06-46.64,0.12-69.94-0.12l-17.49-0.69l-8.74-0.33c-2.98-0.15-5.64-0.21-8.38,0.33 c-5.46,0.98-10.5,4.03-14.23,8.27C2288.22,1753.79,2286.04,1759.43,2285.74,1765.25z"/> </g> <g> <g> <linearGradient id="SVGID_23_" gradientUnits="userSpaceOnUse" x1="2550.6885" y1="703.9097" x2="2550.6885" y2="772.0002" gradientTransform="matrix(1 0 0 -1 0 2374.4785)"> <stop offset="0.0125" style="stop-color:#3C3B3D"/> <stop offset="0.2143" style="stop-color:#4B4B4D"/> <stop offset="0.2891" style="stop-color:#5B5C5E"/> <stop offset="0.8129" style="stop-color:#8E9093"/> <stop offset="1" style="stop-color:#646567"/> </linearGradient> <path class="st25" d="M2311.4,1670.57c-18.77,0-34.05-15.28-34.05-34.05c0-18.77,15.28-34.05,34.05-34.05h478.57 c18.77,0,34.05,15.28,34.05,34.05c0,18.77-15.28,34.05-34.05,34.05H2311.4z"/> <path class="st8" d="M2789.98,1603.85c18.02,0,32.64,14.62,32.64,32.64c0,18.02-14.62,32.64-32.64,32.64H2311.4 c-18.02,0-32.64-14.62-32.64-32.64c0-18.02,14.62-32.64,32.64-32.64H2789.98L2789.98,1603.85z M2789.98,1601.08H2311.4 c-19.54,0-35.45,15.9-35.45,35.45s15.9,35.45,35.45,35.45h478.57c19.54,0,35.45-15.9,35.45-35.45S2809.52,1601.08,2789.98,1601.08 L2789.98,1601.08z"/> </g> <linearGradient id="SVGID_24_" gradientUnits="userSpaceOnUse" x1="2550.6882" y1="711.9363" x2="2550.6882" y2="763.9739" gradientTransform="matrix(1 0 0 -1 0 2374.4785)"> <stop offset="0.0193" style="stop-color:#5B5C5E"/> <stop offset="0.8129" style="stop-color:#8E9093"/> </linearGradient> <path class="st26" d="M2285.74,1636.52L2285.74,1636.52c0-14.35,11.64-26.02,26.02-26.02h477.86c14.35,0,26.02,11.64,26.02,26.02 l0,0c0,14.35-11.64,26.02-26.02,26.02h-477.86C2297.38,1662.51,2285.74,1650.88,2285.74,1636.52z"/> <path class="st10" d="M2285.74,1636.52c-0.18-5.82,1.49-11.82,5.1-16.65c3.58-4.8,8.83-8.47,14.77-10 c2.95-0.81,6.15-0.95,8.98-1.01l8.74-0.33l17.49-0.69c23.3-0.21,46.64-0.06,69.94-0.12h139.88h139.88l69.94,0.09l17.49,0.69 l8.74,0.33c2.83,0.09,6.06,0.24,9.01,1.04c5.97,1.52,11.22,5.22,14.8,10.03c3.61,4.83,5.28,10.83,5.1,16.65 c-0.3-5.82-2.48-11.49-6.27-15.72c-3.73-4.27-8.8-7.28-14.23-8.27c-2.75-0.51-5.4-0.48-8.38-0.33l-8.74,0.33l-17.49,0.69 l-69.94,0.09h-139.88h-139.88c-23.3-0.06-46.64,0.12-69.94-0.12l-17.49-0.69l-8.74-0.33c-2.98-0.15-5.64-0.21-8.38,0.33 c-5.46,0.98-10.5,4.03-14.23,8.27C2288.22,1625.04,2286.04,1630.68,2285.74,1636.52z"/> </g> <g> <g> <linearGradient id="SVGID_25_" gradientUnits="userSpaceOnUse" x1="2550.6885" y1="824.2469" x2="2550.6885" y2="892.3375" gradientTransform="matrix(1 0 0 -1 0 2374.4785)"> <stop offset="0.0125" style="stop-color:#3C3B3D"/> <stop offset="0.2143" style="stop-color:#4B4B4D"/> <stop offset="0.2891" style="stop-color:#5B5C5E"/> <stop offset="0.8129" style="stop-color:#8E9093"/> <stop offset="1" style="stop-color:#646567"/> </linearGradient> <path class="st27" d="M2311.4,1550.23c-18.77,0-34.05-15.28-34.05-34.05c0-18.77,15.28-34.05,34.05-34.05h478.57 c18.77,0,34.05,15.28,34.05,34.05c0,18.77-15.28,34.05-34.05,34.05H2311.4z"/> <path class="st8" d="M2789.98,1483.51c18.02,0,32.64,14.62,32.64,32.64l0,0c0,18.02-14.62,32.64-32.64,32.64H2311.4 c-18.02,0-32.64-14.62-32.64-32.64l0,0c0-18.02,14.62-32.64,32.64-32.64H2789.98L2789.98,1483.51z M2789.98,1480.71H2311.4 c-19.54,0-35.45,15.9-35.45,35.45s15.9,35.45,35.45,35.45h478.57c19.54,0,35.45-15.9,35.45-35.45S2809.52,1480.71,2789.98,1480.71 L2789.98,1480.71z"/> </g> <linearGradient id="SVGID_26_" gradientUnits="userSpaceOnUse" x1="2550.6882" y1="832.3033" x2="2550.6882" y2="884.3409" gradientTransform="matrix(1 0 0 -1 0 2374.4785)"> <stop offset="0.0193" style="stop-color:#5B5C5E"/> <stop offset="0.8129" style="stop-color:#8E9093"/> </linearGradient> <path class="st28" d="M2285.74,1516.16L2285.74,1516.16c0-14.35,11.64-26.02,26.02-26.02h477.86c14.35,0,26.02,11.64,26.02,26.02 l0,0c0,14.35-11.64,26.02-26.02,26.02h-477.86C2297.38,1542.18,2285.74,1530.54,2285.74,1516.16z"/> <path class="st10" d="M2285.74,1516.16c-0.18-5.82,1.49-11.82,5.1-16.65c3.58-4.8,8.83-8.47,14.77-10 c2.95-0.81,6.15-0.95,8.98-1.01l8.74-0.33l17.49-0.69c23.3-0.21,46.64-0.06,69.94-0.12h139.88h139.88l69.94,0.09l17.49,0.69 l8.74,0.33c2.83,0.09,6.06,0.24,9.01,1.04c5.97,1.52,11.22,5.22,14.8,10.03c3.61,4.83,5.28,10.83,5.1,16.65 c-0.3-5.82-2.48-11.49-6.27-15.72c-3.73-4.27-8.8-7.28-14.23-8.27c-2.75-0.51-5.4-0.48-8.38-0.33l-8.74,0.33l-17.49,0.69 l-69.94,0.09h-139.88h-139.88c-23.3-0.06-46.64,0.12-69.94-0.12l-17.49-0.69l-8.74-0.33c-2.98-0.15-5.64-0.21-8.38,0.33 c-5.46,0.98-10.5,4.03-14.23,8.27C2288.22,1504.7,2286.04,1510.34,2285.74,1516.16z"/> </g> <g> <g> <linearGradient id="SVGID_27_" gradientUnits="userSpaceOnUse" x1="2550.6885" y1="955.8035" x2="2550.6885" y2="1023.8939" gradientTransform="matrix(1 0 0 -1 0 2374.4785)"> <stop offset="0.0125" style="stop-color:#3C3B3D"/> <stop offset="0.2143" style="stop-color:#4B4B4D"/> <stop offset="0.2891" style="stop-color:#5B5C5E"/> <stop offset="0.8129" style="stop-color:#8E9093"/> <stop offset="1" style="stop-color:#646567"/> </linearGradient> <path class="st29" d="M2311.4,1418.68c-18.77,0-34.05-15.28-34.05-34.05c0-18.77,15.28-34.05,34.05-34.05h478.57 c18.77,0,34.05,15.28,34.05,34.05c0,18.77-15.28,34.05-34.05,34.05H2311.4z"/> <path class="st8" d="M2789.98,1351.99c18.02,0,32.64,14.62,32.64,32.64l0,0c0,18.02-14.62,32.64-32.64,32.64H2311.4 c-18.02,0-32.64-14.62-32.64-32.64l0,0c0-18.02,14.62-32.64,32.64-32.64H2789.98L2789.98,1351.99z M2789.98,1349.18H2311.4 c-19.54,0-35.45,15.9-35.45,35.45s15.9,35.45,35.45,35.45h478.57c19.54,0,35.45-15.9,35.45-35.45S2809.52,1349.18,2789.98,1349.18 L2789.98,1349.18z"/> </g> <linearGradient id="SVGID_28_" gradientUnits="userSpaceOnUse" x1="2550.6882" y1="963.8299" x2="2550.6882" y2="1015.8674" gradientTransform="matrix(1 0 0 -1 0 2374.4785)"> <stop offset="0.0193" style="stop-color:#5B5C5E"/> <stop offset="0.8129" style="stop-color:#8E9093"/> </linearGradient> <path class="st30" d="M2285.74,1384.63L2285.74,1384.63c0-14.35,11.64-26.02,26.02-26.02h477.86c14.35,0,26.02,11.64,26.02,26.02 l0,0c0,14.35-11.64,26.02-26.02,26.02h-477.86C2297.38,1410.65,2285.74,1398.98,2285.74,1384.63z"/> <path class="st10" d="M2285.74,1384.63c-0.18-5.82,1.49-11.82,5.1-16.65c3.58-4.8,8.83-8.47,14.77-10 c2.95-0.81,6.15-0.95,8.98-1.01l8.74-0.33l17.49-0.69c23.3-0.21,46.64-0.06,69.94-0.12h139.88h139.88l69.94,0.09l17.49,0.69 l8.74,0.33c2.83,0.09,6.06,0.24,9.01,1.04c5.97,1.52,11.22,5.22,14.8,10.03c3.61,4.83,5.28,10.83,5.1,16.65 c-0.3-5.82-2.48-11.49-6.27-15.72c-3.73-4.27-8.8-7.28-14.23-8.27c-2.75-0.51-5.4-0.48-8.38-0.33l-8.74,0.33l-17.49,0.69 l-69.94,0.09h-139.88h-139.88c-23.3-0.06-46.64,0.12-69.94-0.12l-17.49-0.69l-8.74-0.33c-2.98-0.15-5.64-0.21-8.38,0.33 c-5.46,0.98-10.5,4.03-14.23,8.27C2288.22,1373.14,2286.04,1378.81,2285.74,1384.63z"/> </g> <g> <g> <linearGradient id="SVGID_29_" gradientUnits="userSpaceOnUse" x1="2574.7827" y1="1899.9121" x2="2574.7827" y2="1968.0028" gradientTransform="matrix(1 0 0 -1 0 2374.4785)"> <stop offset="0.0125" style="stop-color:#3C3B3D"/> <stop offset="0.2143" style="stop-color:#4B4B4D"/> <stop offset="0.2891" style="stop-color:#5B5C5E"/> <stop offset="0.8129" style="stop-color:#8E9093"/> <stop offset="1" style="stop-color:#646567"/> </linearGradient> <path class="st31" d="M2381.31,474.57c-18.77,0-34.05-15.28-34.05-34.05s15.28-34.05,34.05-34.05h386.94 c18.77,0,34.05,15.28,34.05,34.05s-15.28,34.05-34.05,34.05H2381.31z"/> <path class="st8" d="M2768.25,407.88c18.02,0,32.64,14.62,32.64,32.64l0,0c0,18.02-14.62,32.64-32.64,32.64h-386.94 c-18.02,0-32.64-14.62-32.64-32.64l0,0c0-18.02,14.62-32.64,32.64-32.64H2768.25L2768.25,407.88z M2768.25,405.07h-386.94 c-19.54,0-35.45,15.9-35.45,35.45s15.9,35.45,35.45,35.45h386.94c19.54,0,35.45-15.9,35.45-35.45S2787.8,405.07,2768.25,405.07 L2768.25,405.07z"/> </g> <linearGradient id="SVGID_30_" gradientUnits="userSpaceOnUse" x1="2574.8123" y1="1907.9386" x2="2574.8123" y2="1959.9763" gradientTransform="matrix(1 0 0 -1 0 2374.4785)"> <stop offset="0.0193" style="stop-color:#5B5C5E"/> <stop offset="0.8129" style="stop-color:#8E9093"/> </linearGradient> <path class="st32" d="M2355.68,440.52L2355.68,440.52c0-14.35,11.64-26.02,26.02-26.02h386.23c14.35,0,26.02,11.64,26.02,26.02l0,0 c0,14.35-11.64,26.02-26.02,26.02h-386.25C2367.32,466.54,2355.68,454.87,2355.68,440.52z"/> <path class="st10" d="M2355.68,440.52c-0.51-9.79,5.13-19.87,14.29-24.5c2.24-1.19,4.68-2.06,7.22-2.54 c2.54-0.57,5.13-0.54,7.52-0.69l14.62-0.72c9.76-0.72,19.48-0.3,29.24-0.39h29.24h116.97h116.97h29.24 c9.76,0.12,19.48-0.36,29.24,0.36l14.62,0.72c2.39,0.15,4.98,0.12,7.52,0.69c2.54,0.48,4.98,1.34,7.22,2.54 c4.54,2.33,8.32,5.97,10.8,10.32c2.54,4.33,3.64,9.31,3.49,14.17c-0.33-9.85-6.71-18.74-15.31-22.38 c-2.12-0.95-4.39-1.55-6.68-1.82c-2.27-0.36-4.57-0.18-7.04-0.06l-14.62,0.72c-9.76,0.72-19.48,0.24-29.24,0.36h-29.24h-116.97 h-116.97h-29.24c-9.76-0.09-19.48,0.33-29.24-0.39l-14.62-0.72c-2.48-0.12-4.77-0.3-7.07,0.06c-2.3,0.27-4.57,0.9-6.68,1.85 C2362.36,421.78,2356.01,430.67,2355.68,440.52z"/> </g> <g> <g> <linearGradient id="SVGID_31_" gradientUnits="userSpaceOnUse" x1="2572.7834" y1="1776.7701" x2="2572.7834" y2="1844.8608" gradientTransform="matrix(1 0 0 -1 0 2374.4785)"> <stop offset="0.0125" style="stop-color:#3C3B3D"/> <stop offset="0.2143" style="stop-color:#4B4B4D"/> <stop offset="0.2891" style="stop-color:#5B5C5E"/> <stop offset="0.8129" style="stop-color:#8E9093"/> <stop offset="1" style="stop-color:#646567"/> </linearGradient> <path class="st33" d="M2377.34,597.71c-18.77,0-34.05-15.28-34.05-34.05c0-18.77,15.28-34.05,34.05-34.05h390.88 c18.77,0,34.05,15.28,34.05,34.05c0,18.77-15.28,34.05-34.05,34.05H2377.34z"/> <path class="st8" d="M2768.25,531.02c18.02,0,32.64,14.62,32.64,32.64l0,0c0,18.02-14.62,32.64-32.64,32.64h-390.88 c-18.02,0-32.64-14.62-32.64-32.64l0,0c0-18.02,14.62-32.64,32.64-32.64H2768.25L2768.25,531.02z M2768.25,528.22h-390.88 c-19.54,0-35.45,15.9-35.45,35.45c0,19.54,15.9,35.45,35.45,35.45h390.88c19.54,0,35.45-15.9,35.45-35.45 C2803.7,544.12,2787.8,528.22,2768.25,528.22L2768.25,528.22z"/> </g> <linearGradient id="SVGID_32_" gradientUnits="userSpaceOnUse" x1="2572.8132" y1="1784.7965" x2="2572.8132" y2="1836.8342" gradientTransform="matrix(1 0 0 -1 0 2374.4785)"> <stop offset="0.0193" style="stop-color:#5B5C5E"/> <stop offset="0.8129" style="stop-color:#8E9093"/> </linearGradient> <path class="st34" d="M2351.71,563.66L2351.71,563.66c0-14.35,11.64-26.02,26.02-26.02h390.16c14.35,0,26.02,11.64,26.02,26.02l0,0 c0,14.35-11.64,26.02-26.02,26.02H2377.7C2363.35,589.68,2351.71,578.02,2351.71,563.66z"/> <path class="st10" d="M2351.71,563.66c-0.15-4.92,1.01-9.94,3.58-14.29c2.51-4.36,6.39-8,10.95-10.32c2.3-1.16,4.74-2.03,7.31-2.48 c2.57-0.51,5.16-0.51,7.58-0.66l14.74-0.72c9.82-0.72,19.66-0.27,29.48-0.39h29.48h117.98h117.98h29.48l14.74-0.03 c4.92-0.18,9.82,0.12,14.74,0.36l14.74,0.69c2.39,0.15,4.98,0.12,7.58,0.66c2.57,0.45,5.01,1.31,7.31,2.48 c4.59,2.33,8.44,5.97,10.95,10.32c2.57,4.36,3.73,9.4,3.55,14.29c-0.33-9.91-6.83-18.89-15.52-22.47 c-2.15-0.92-4.45-1.55-6.74-1.76c-2.27-0.3-4.62-0.12-7.13,0l-14.74,0.69c-4.92,0.24-9.82,0.54-14.74,0.36l-14.74-0.03h-29.48 h-117.98h-117.98h-29.48c-9.82-0.12-19.66,0.36-29.48-0.39l-14.74-0.72c-2.51-0.12-4.86-0.3-7.13,0.03 c-2.33,0.24-4.59,0.87-6.74,1.79C2358.52,544.78,2352.04,553.73,2351.71,563.66z"/> </g> <g> <g> <linearGradient id="SVGID_33_" gradientUnits="userSpaceOnUse" x1="2568.8447" y1="1656.4329" x2="2568.8447" y2="1724.5236" gradientTransform="matrix(1 0 0 -1 0 2374.4785)"> <stop offset="0.0125" style="stop-color:#3C3B3D"/> <stop offset="0.2143" style="stop-color:#4B4B4D"/> <stop offset="0.2891" style="stop-color:#5B5C5E"/> <stop offset="0.8129" style="stop-color:#8E9093"/> <stop offset="1" style="stop-color:#646567"/> </linearGradient> <path class="st35" d="M2369.44,718.05c-18.77,0-34.05-15.28-34.05-34.05c0-18.77,15.28-34.05,34.05-34.05h398.82 c18.77,0,34.05,15.28,34.05,34.05c0,18.77-15.28,34.05-34.05,34.05H2369.44z"/> <path class="st8" d="M2768.25,651.36c18.02,0,32.64,14.62,32.64,32.64c0,18.02-14.62,32.64-32.64,32.64h-398.82 c-18.02,0-32.64-14.62-32.64-32.64c0-18.02,14.62-32.64,32.64-32.64H2768.25L2768.25,651.36z M2768.25,648.55h-398.82 c-19.54,0-35.45,15.9-35.45,35.45c0,19.54,15.9,35.45,35.45,35.45h398.82c19.54,0,35.45-15.9,35.45-35.45 C2803.7,664.46,2787.8,648.55,2768.25,648.55L2768.25,648.55z"/> </g> <linearGradient id="SVGID_34_" gradientUnits="userSpaceOnUse" x1="2568.8447" y1="1664.4594" x2="2568.8447" y2="1716.4971" gradientTransform="matrix(1 0 0 -1 0 2374.4785)"> <stop offset="0.0193" style="stop-color:#5B5C5E"/> <stop offset="0.8129" style="stop-color:#8E9093"/> </linearGradient> <path class="st36" d="M2343.78,684L2343.78,684c0-14.35,11.64-26.02,26.02-26.02h398.1c14.35,0,26.02,11.64,26.02,26.02l0,0 c0,14.35-11.64,26.02-26.02,26.02h-398.1C2355.41,710.02,2343.78,698.38,2343.78,684z"/> <path class="st10" d="M2343.78,684c-0.18-5.01,1.04-10.12,3.7-14.5c2.6-4.42,6.59-8.06,11.31-10.32c2.36-1.07,4.86-2,7.49-2.36 c2.66-0.42,5.19-0.42,7.67-0.57l15.01-0.72c10-0.72,19.99-0.21,29.99-0.36h29.99h119.95h119.95h29.99h15.01 c5.01-0.18,10,0.09,15.01,0.33l15.01,0.69c2.48,0.12,5.01,0.15,7.67,0.57c2.63,0.36,5.13,1.28,7.49,2.36 c4.71,2.3,8.68,5.94,11.31,10.35s3.85,9.52,3.67,14.53c-0.33-10.09-7.04-19.19-15.96-22.68c-2.24-0.84-4.54-1.49-6.89-1.64 c-2.3-0.21-4.77-0.03-7.31,0.09l-15.01,0.69c-5.01,0.27-10,0.51-15.01,0.33h-15.01h-29.99h-119.95H2448.9h-29.99 c-10-0.12-19.99,0.39-29.99-0.36l-15.01-0.72c-2.54-0.12-5.01-0.3-7.31-0.09c-2.36,0.15-4.65,0.84-6.89,1.67 C2350.79,664.81,2344.1,673.92,2343.78,684z"/> </g> <g> <g> <linearGradient id="SVGID_35_" gradientUnits="userSpaceOnUse" x1="2564.4138" y1="1527.6813" x2="2564.4138" y2="1595.772" gradientTransform="matrix(1 0 0 -1 0 2374.4785)"> <stop offset="0.0125" style="stop-color:#3C3B3D"/> <stop offset="0.2143" style="stop-color:#4B4B4D"/> <stop offset="0.2891" style="stop-color:#5B5C5E"/> <stop offset="0.8129" style="stop-color:#8E9093"/> <stop offset="1" style="stop-color:#646567"/> </linearGradient> <path class="st37" d="M2360.57,846.8c-18.77,0-34.05-15.28-34.05-34.05c0-18.77,15.28-34.05,34.05-34.05h407.68 c18.77,0,34.05,15.28,34.05,34.05c0,18.77-15.28,34.05-34.05,34.05H2360.57z"/> <path class="st8" d="M2768.25,780.11c18.02,0,32.64,14.62,32.64,32.64l0,0c0,18.02-14.62,32.64-32.64,32.64h-407.68 c-18.02,0-32.64-14.62-32.64-32.64l0,0c0-18.02,14.62-32.64,32.64-32.64H2768.25L2768.25,780.11z M2768.25,777.3h-407.68 c-19.54,0-35.45,15.9-35.45,35.45c0,19.54,15.9,35.45,35.45,35.45h407.68c19.54,0,35.45-15.9,35.45-35.45 C2803.7,793.21,2787.8,777.3,2768.25,777.3L2768.25,777.3z"/> </g> <linearGradient id="SVGID_36_" gradientUnits="userSpaceOnUse" x1="2564.4136" y1="1535.7078" x2="2564.4136" y2="1587.7455" gradientTransform="matrix(1 0 0 -1 0 2374.4785)"> <stop offset="0.0193" style="stop-color:#5B5C5E"/> <stop offset="0.8129" style="stop-color:#8E9093"/> </linearGradient> <path class="st38" d="M2334.91,812.75L2334.91,812.75c0-14.35,11.64-26.02,26.02-26.02h406.96c14.35,0,26.02,11.64,26.02,26.02l0,0 c0,14.35-11.64,26.02-26.02,26.02h-406.96C2346.55,838.77,2334.91,827.1,2334.91,812.75z"/> <path class="st10" d="M2334.91,812.75c-0.06-2.54,0.18-5.1,0.81-7.61c0.69-2.48,1.67-4.89,3.01-7.13c1.37-2.21,3.07-4.24,5.04-6.03 c2-1.73,4.24-3.16,6.65-4.33c2.45-1.07,5.04-1.82,7.7-2.24c2.75-0.27,5.22-0.33,7.79-0.48l15.28-0.69 c5.1-0.24,10.17-0.51,15.28-0.36l15.28,0.03h30.55h122.16h122.16h30.55h15.28c5.1-0.15,10.17,0.03,15.28,0.3l15.28,0.69 c2.57,0.12,5.04,0.18,7.79,0.48c2.66,0.42,5.25,1.13,7.7,2.24c2.42,1.16,4.65,2.6,6.65,4.33c1.97,1.76,3.64,3.82,5.04,6.03 c1.34,2.24,2.33,4.65,3.01,7.16c0.63,2.51,0.87,5.07,0.81,7.61c-0.33-10.26-7.28-19.54-16.44-22.89c-2.3-0.84-4.65-1.31-7.04-1.52 c-2.33-0.09-4.95,0.09-7.49,0.21l-15.28,0.69c-5.1,0.27-10.17,0.45-15.28,0.3h-15.28h-30.55h-122.16h-122.16h-30.64l-15.28,0.03 c-5.1,0.15-10.17-0.09-15.28-0.36l-15.28-0.69c-2.54-0.12-5.13-0.3-7.49-0.18c-2.39,0.21-4.77,0.69-7.07,1.52 C2342.16,793.21,2335.24,802.46,2334.91,812.75z"/> </g> <g> <g> <linearGradient id="SVGID_37_" gradientUnits="userSpaceOnUse" x1="2556.7603" y1="1404.5393" x2="2556.7603" y2="1472.63" gradientTransform="matrix(1 0 0 -1 0 2374.4785)"> <stop offset="0.0125" style="stop-color:#3C3B3D"/> <stop offset="0.2143" style="stop-color:#4B4B4D"/> <stop offset="0.2891" style="stop-color:#5B5C5E"/> <stop offset="0.8129" style="stop-color:#8E9093"/> <stop offset="1" style="stop-color:#646567"/> </linearGradient> <path class="st39" d="M2345.27,969.94c-18.77,0-34.05-15.28-34.05-34.05c0-18.77,15.28-34.05,34.05-34.05h422.99 c18.77,0,34.05,15.28,34.05,34.05c0,18.77-15.28,34.05-34.05,34.05H2345.27z"/> <path class="st8" d="M2768.25,903.25c18.02,0,32.64,14.62,32.64,32.64l0,0c0,18.02-14.62,32.64-32.64,32.64h-422.99 c-18.02,0-32.64-14.62-32.64-32.64l0,0c0-18.02,14.62-32.64,32.64-32.64H2768.25L2768.25,903.25z M2768.25,900.45h-422.99 c-19.54,0-35.45,15.9-35.45,35.45c0,19.54,15.9,35.45,35.45,35.45h422.99c19.54,0,35.45-15.9,35.45-35.45 C2803.7,916.35,2787.8,900.45,2768.25,900.45L2768.25,900.45z"/> </g> <linearGradient id="SVGID_38_" gradientUnits="userSpaceOnUse" x1="2556.7751" y1="1412.5657" x2="2556.7751" y2="1464.6034" gradientTransform="matrix(1 0 0 -1 0 2374.4785)"> <stop offset="0.0193" style="stop-color:#5B5C5E"/> <stop offset="0.8129" style="stop-color:#8E9093"/> </linearGradient> <path class="st40" d="M2319.64,935.89L2319.64,935.89c0-14.35,11.64-26.02,26.02-26.02h422.24c14.35,0,26.02,11.64,26.02,26.02l0,0 c0,14.35-11.64,26.02-26.02,26.02h-422.27C2331.27,961.91,2319.64,950.28,2319.64,935.89z"/> <path class="st10" d="M2319.64,935.89c-0.06-2.63,0.21-5.28,0.87-7.85c0.72-2.57,1.82-5.04,3.22-7.31 c2.89-4.54,7.25-8.24,12.35-10.29c2.54-1.07,5.25-1.73,8.03-1.97c2.77-0.24,5.28-0.27,7.97-0.42l15.75-0.69 c5.25-0.27,10.5-0.42,15.75-0.27l15.75,0.03h31.51h125.98h125.98h31.51h15.75l7.88-0.06c2.63,0.03,5.25,0.18,7.88,0.3l15.75,0.69 c2.66,0.15,5.16,0.18,7.97,0.42c2.77,0.24,5.49,0.87,8.03,1.97c5.1,2.09,9.43,5.79,12.35,10.32c1.43,2.3,2.51,4.77,3.22,7.31 c0.66,2.6,0.92,5.22,0.87,7.85c-0.3-10.62-7.76-20.08-17.31-23.15c-4.74-1.79-9.76-1.19-15.1-0.98l-15.75,0.69 c-2.63,0.12-5.25,0.27-7.88,0.3l-7.88-0.06h-15.75h-31.51h-125.98h-126.07h-31.51l-15.75,0.03c-5.25,0.15-10.5,0-15.75-0.27 l-15.75-0.69c-5.34-0.21-10.38-0.81-15.1,1.01C2327.39,915.81,2319.94,925.27,2319.64,935.89z"/> </g> <g> <g> <linearGradient id="SVGID_39_" gradientUnits="userSpaceOnUse" x1="2550.2407" y1="1267.4031" x2="2550.2407" y2="1335.4938" gradientTransform="matrix(1 0 0 -1 0 2374.4785)"> <stop offset="0.0125" style="stop-color:#3C3B3D"/> <stop offset="0.2143" style="stop-color:#4B4B4D"/> <stop offset="0.2891" style="stop-color:#5B5C5E"/> <stop offset="0.8129" style="stop-color:#8E9093"/> <stop offset="1" style="stop-color:#646567"/> </linearGradient> <path class="st41" d="M2332.23,1107.08c-18.77,0-34.05-15.28-34.05-34.05c0-18.77,15.28-34.05,34.05-34.05h436.02 c18.77,0,34.05,15.28,34.05,34.05c0,18.77-15.28,34.05-34.05,34.05H2332.23z"/> <path class="st8" d="M2768.25,1040.39c18.02,0,32.64,14.62,32.64,32.64l0,0c0,18.02-14.62,32.64-32.64,32.64h-436.02 c-18.02,0-32.64-14.62-32.64-32.64l0,0c0-18.02,14.62-32.64,32.64-32.64H2768.25L2768.25,1040.39z M2768.25,1037.58h-436.02 c-19.54,0-35.45,15.9-35.45,35.45c0,19.54,15.9,35.45,35.45,35.45h436.02c19.54,0,35.45-15.9,35.45-35.45 C2803.7,1053.49,2787.8,1037.58,2768.25,1037.58L2768.25,1037.58z"/> </g> <linearGradient id="SVGID_40_" gradientUnits="userSpaceOnUse" x1="2550.2405" y1="1275.4296" x2="2550.2405" y2="1327.4673" gradientTransform="matrix(1 0 0 -1 0 2374.4785)"> <stop offset="0.0193" style="stop-color:#5B5C5E"/> <stop offset="0.8129" style="stop-color:#8E9093"/> </linearGradient> <path class="st42" d="M2306.57,1073.03L2306.57,1073.03c0-14.35,11.64-26.02,26.02-26.02h435.31c14.35,0,26.02,11.64,26.02,26.02 l0,0c0,14.35-11.64,26.02-26.02,26.02h-435.31C2318.2,1099.05,2306.57,1087.41,2306.57,1073.03z"/> <path class="st10" d="M2306.57,1073.03c-0.18-5.37,1.25-10.92,4.33-15.52c3.01-4.65,7.61-8.3,12.89-10.26 c2.66-0.95,5.46-1.61,8.3-1.73l8.12-0.36l16.14-0.69c2.69-0.12,5.37-0.24,8.09-0.3l8.09,0.06h16.14h32.31h129.26h129.26h32.31 h16.14c5.37-0.06,10.77-0.15,16.14,0.21l16.14,0.69l8.12,0.36c2.86,0.12,5.67,0.78,8.3,1.73c5.28,2,9.88,5.64,12.89,10.29 c3.07,4.62,4.51,10.14,4.33,15.52c-0.33-10.89-8.18-20.56-18.05-23.39c-2.45-0.69-4.98-1.1-7.55-1.01l-8.06,0.33l-16.14,0.69 c-5.37,0.33-10.77,0.24-16.14,0.21h-16.14h-32.31H2550.2h-129.26h-32.31h-16.14l-8.09,0.06c-2.69-0.03-5.37-0.18-8.09-0.3 l-16.14-0.69l-8.06-0.33c-2.54-0.09-5.07,0.33-7.55,1.04C2314.74,1052.47,2306.9,1062.14,2306.57,1073.03z"/> </g> <path class="st43" d="M1135.21,1760.71l-2.33-42.4l-2.09-42.4l-4.12-84.8l-1.82-84.83l-0.48-21.21c-0.06-3.61-0.21-6.89-0.18-10.77 c0.06-3.85,0.48-7.7,1.28-11.46c3.19-15.16,13.16-28.82,27-36.13c6.89-3.67,14.65-5.7,22.44-5.88l21.33-0.03h42.43h84.86h169.72 h169.72h84.86h42.43h10.62c1.7,0,3.67,0,5.64,0.12c1.94,0.12,3.88,0.36,5.79,0.75c7.7,1.37,15.01,4.68,21.24,9.34 c12.5,9.34,20.35,24.29,21.39,39.68c0.15,1.91,0.18,3.85,0.15,5.76l-0.12,5.31l-0.24,10.59l-0.48,21.21l-1.85,84.83l-4.15,84.8 l-2.06,42.4l-2.27,42.4l-0.42-42.46l-0.21-42.46l-0.42-84.89l1.85-84.83l0.48-21.21l0.24-10.59l0.12-5.31 c0.03-1.61-0.03-3.22-0.12-4.83c-0.9-12.86-7.4-25.12-17.63-32.79c-5.1-3.79-11.01-6.47-17.25-7.58c-1.55-0.3-3.13-0.51-4.71-0.6 c-1.58-0.12-3.13-0.12-4.98-0.12h-10.62h-42.43h-84.86h-169.72h-169.72h-84.86h-42.43l-21.1,0.03c-6.36,0.15-12.62,1.79-18.23,4.77 c-11.25,5.94-19.54,17.22-22.17,29.75c-0.69,3.13-1.04,6.36-1.07,9.58c-0.03,3.19,0.12,6.98,0.18,10.44l0.48,21.21l1.91,84.83 l-0.39,84.89l-0.18,42.46L1135.21,1760.71z"/> <path class="st44" d="M1837.36,1837.81l-20.23,127.71l-5.19,31.9c-0.9,5.31-1.61,10.59-2.83,15.99c-0.45,2.72-1.37,5.31-2.15,7.94 c-0.69,2.66-1.85,5.16-2.86,7.73c-4.27,10.12-10.44,19.45-18.08,27.39c-7.67,7.91-16.86,14.35-26.91,18.89 c-10.06,4.57-20.98,7.22-32.02,7.76l-4.15,0.21h-4.03l-8.09,0.03l-16.17,0.03l-64.66,0.12l-129.29,0.24l-129.29-0.24l-64.66-0.12 l-32.31-0.06l-8.09-0.06c-2.72-0.03-5.52-0.24-8.27-0.36c-2.75-0.3-5.49-0.72-8.21-1.1c-2.69-0.66-5.4-1.16-8.06-1.94 c-21.24-6.12-39.86-20.38-51.47-39.09c-5.82-9.31-9.7-19.84-11.85-30.52l-6.62-31.63l-25.96-126.66l28.64,126.1l7.01,31.54 c2.24,10.41,6.03,20.38,11.76,29.3c11.34,17.81,29.36,31.24,49.62,36.82c2.54,0.69,5.13,1.16,7.67,1.73 c2.6,0.33,5.19,0.72,7.82,0.95c2.63,0.09,5.22,0.24,7.88,0.27l8.09-0.06l32.31-0.06l64.66-0.12l129.29-0.24l129.29,0.24l64.66,0.12 l16.17,0.03l8.09,0.03h4.03l3.94-0.15c10.47-0.42,20.86-2.8,30.49-7.01c9.61-4.21,18.47-10.23,25.9-17.72 c7.4-7.49,13.43-16.35,17.63-26.05c0.98-2.45,2.15-4.83,2.83-7.4c0.78-2.54,1.67-5.01,2.15-7.61c1.25-5.1,2.03-10.5,2.98-15.78 l5.58-31.84L1837.36,1837.81z"/> <g> <linearGradient id="SVGID_41_" gradientUnits="userSpaceOnUse" x1="486.4698" y1="280.8048" x2="486.4698" y2="961.6516" gradientTransform="matrix(1 0 0 -1 0 2374.4785)"> <stop offset="0" style="stop-color:#8B919A"/> <stop offset="0.0782" style="stop-color:#56575B"/> <stop offset="0.6723" style="stop-color:#8F99A5"/> <stop offset="1" style="stop-color:#83858A"/> </linearGradient> <path class="st45" d="M719.72,2093.67h-457.6c-46.58,0-87.31-33-97.24-79.04l-34.55-159.99c-6.62-30.73-10.32-62.09-11.04-93.66 l-6.24-284.39c-0.78-35.15,26.11-63.76,60.06-63.76h626.72c33.93,0,60.81,28.61,60.06,63.76l-6.42,291.64 c-0.54,24.05-2.8,48.01-6.8,71.67l-28.79,170.23C809.71,2058.26,767.99,2093.67,719.72,2093.67z"/> <path class="st0" d="M719.72,2096.6h-457.6c-47.83,0-89.93-34.19-100.11-81.34l-34.55-159.99c-6.65-30.88-10.41-62.57-11.1-94.2 l-6.24-284.39c-0.39-18.26,6.24-35.33,18.65-48.04c11.82-12.08,27.54-18.74,44.31-18.74H799.8c16.77,0,32.49,6.65,44.31,18.74 c12.44,12.71,19.07,29.75,18.65,48.01l-6.42,291.64c-0.54,24.11-2.83,48.37-6.83,72.09l-28.79,170.23 C812.3,2060.46,769.81,2096.6,719.72,2096.6z M173.08,1415.78c-15.19,0-29.42,6.03-40.13,16.98 c-11.31,11.58-17.37,27.12-17.01,43.8l6.24,284.39c0.69,31.27,4.39,62.6,10.95,93.1l34.55,159.99 c9.61,44.46,49.29,76.71,94.38,76.71h457.57c47.26,0,87.31-34.1,95.27-81.07l28.79-170.23c3.97-23.45,6.24-47.41,6.77-71.22 l6.42-291.64c0.36-16.68-5.67-32.23-16.98-43.8c-10.71-10.95-24.94-16.98-40.13-16.98H173.08V1415.78z"/> </g> <linearGradient id="SVGID_42_" gradientUnits="userSpaceOnUse" x1="486.4716" y1="293.486" x2="486.4716" y2="948.9108" gradientTransform="matrix(1 0 0 -1 0 2374.4785)"> <stop offset="0" style="stop-color:#9399A1"/> <stop offset="0.1576" style="stop-color:#83858A"/> <stop offset="0.3594" style="stop-color:#9CA3AF"/> <stop offset="0.5567" style="stop-color:#CAC9CA"/> <stop offset="0.5726" style="stop-color:#D0D8DD"/> <stop offset="0.5952" style="stop-color:#E0E8ED"/> <stop offset="0.7834" style="stop-color:#C3CBD4"/> <stop offset="0.8878" style="stop-color:#AEB9C7"/> <stop offset="1" style="stop-color:#A9B1BD"/> </linearGradient> <path class="st46" d="M262.12,2080.99c-40.52,0-76.21-29.03-84.83-69.02l-34.55-159.99c-6.47-29.9-10.09-60.6-10.74-91.25 l-6.24-284.39c-0.3-14.02,4.74-27.09,14.2-36.76c8.86-9.04,20.62-14.02,33.15-14.02h626.72c12.53,0,24.29,4.98,33.15,14.02 c9.46,9.7,14.53,22.74,14.2,36.76l-6.42,291.64c-0.51,23.33-2.75,46.82-6.62,69.82l-28.79,170.23 c-7.13,42.25-43.15,72.95-85.64,72.95H262.12z"/> <g> <g> <linearGradient id="SVGID_43_" gradientUnits="userSpaceOnUse" x1="482.7854" y1="834.5113" x2="482.7854" y2="902.6018" gradientTransform="matrix(1 0 0 -1 0 2374.4785)"> <stop offset="0.0125" style="stop-color:#3C3B3D"/> <stop offset="0.2143" style="stop-color:#4B4B4D"/> <stop offset="0.2891" style="stop-color:#5B5C5E"/> <stop offset="0.8129" style="stop-color:#8E9093"/> <stop offset="1" style="stop-color:#646567"/> </linearGradient> <path class="st47" d="M211.3,1539.97c-18.77,0-34.05-15.28-34.05-34.05c0-18.77,15.28-34.05,34.05-34.05h542.96 c18.77,0,34.05,15.28,34.05,34.05c0,18.77-15.28,34.05-34.05,34.05H211.3z"/> <path class="st8" d="M754.27,1473.25c18.02,0,32.64,14.62,32.64,32.64c0,18.02-14.62,32.64-32.64,32.64H211.3 c-18.02,0-32.64-14.62-32.64-32.64c0-18.02,14.62-32.64,32.64-32.64H754.27L754.27,1473.25z M754.27,1470.44H211.3 c-19.54,0-35.45,15.9-35.45,35.45s15.9,35.45,35.45,35.45h542.96c19.54,0,35.45-15.9,35.45-35.45S773.81,1470.44,754.27,1470.44 L754.27,1470.44z"/> </g> <linearGradient id="SVGID_44_" gradientUnits="userSpaceOnUse" x1="482.7853" y1="842.5676" x2="482.7853" y2="894.6052" gradientTransform="matrix(1 0 0 -1 0 2374.4785)"> <stop offset="0.0193" style="stop-color:#5B5C5E"/> <stop offset="0.8129" style="stop-color:#8E9093"/> </linearGradient> <path class="st48" d="M185.64,1505.89L185.64,1505.89c0-14.35,11.64-26.02,26.02-26.02h542.25c14.35,0,26.02,11.64,26.02,26.02l0,0 c0,14.35-11.64,26.02-26.02,26.02H211.66C197.28,1531.91,185.64,1520.27,185.64,1505.89z"/> <path class="st10" d="M185.64,1505.89c-0.27-6.5,2-13.19,6.39-18.26c4.39-5.07,10.8-8.44,17.66-9.13 c13.22-0.63,26.05-0.95,39.09-1.43l78,0.03h155.99h155.99h78c13.04,0.48,25.9,0.81,39.09,1.43c6.83,0.69,13.28,4.06,17.63,9.13 c4.39,5.07,6.68,11.76,6.42,18.26c-0.27-6.5-3.07-12.77-7.58-17.16c-4.45-4.48-10.56-7.1-16.68-7.28 c-12.8,0.27-25.93,0.84-38.88,1.25h-78H482.77H326.78l-78,0.03c-12.95-0.39-26.11-0.98-38.88-1.25c-6.12,0.18-12.23,2.8-16.68,7.28 C188.72,1493.15,185.91,1499.39,185.64,1505.89z"/> </g> <g> <g> <linearGradient id="SVGID_45_" gradientUnits="userSpaceOnUse" x1="482.7854" y1="716.9788" x2="482.7854" y2="785.0693" gradientTransform="matrix(1 0 0 -1 0 2374.4785)"> <stop offset="0.0125" style="stop-color:#3C3B3D"/> <stop offset="0.2143" style="stop-color:#4B4B4D"/> <stop offset="0.2891" style="stop-color:#5B5C5E"/> <stop offset="0.8129" style="stop-color:#8E9093"/> <stop offset="1" style="stop-color:#646567"/> </linearGradient> <path class="st49" d="M211.3,1657.5c-18.77,0-34.05-15.28-34.05-34.05c0-18.77,15.28-34.05,34.05-34.05h542.96 c18.77,0,34.05,15.28,34.05,34.05c0,18.77-15.28,34.05-34.05,34.05H211.3z"/> <path class="st8" d="M754.27,1590.81c18.02,0,32.64,14.62,32.64,32.64l0,0c0,18.02-14.62,32.64-32.64,32.64H211.3 c-18.02,0-32.64-14.62-32.64-32.64l0,0c0-18.02,14.62-32.64,32.64-32.64H754.27L754.27,1590.81z M754.27,1588.01H211.3 c-19.54,0-35.45,15.9-35.45,35.45s15.9,35.45,35.45,35.45h542.96c19.54,0,35.45-15.9,35.45-35.45S773.81,1588.01,754.27,1588.01 L754.27,1588.01z"/> </g> <linearGradient id="SVGID_46_" gradientUnits="userSpaceOnUse" x1="482.7853" y1="725.0054" x2="482.7853" y2="777.043" gradientTransform="matrix(1 0 0 -1 0 2374.4785)"> <stop offset="0.0193" style="stop-color:#5B5C5E"/> <stop offset="0.8129" style="stop-color:#8E9093"/> </linearGradient> <path class="st50" d="M185.64,1623.45L185.64,1623.45c0-14.35,11.64-26.02,26.02-26.02h542.25c14.35,0,26.02,11.64,26.02,26.02l0,0 c0,14.35-11.64,26.02-26.02,26.02H211.66C197.28,1649.47,185.64,1637.81,185.64,1623.45z"/> <path class="st10" d="M185.64,1623.45c-0.27-6.5,2-13.19,6.39-18.26c4.39-5.07,10.8-8.44,17.66-9.13 c13.22-0.63,26.05-0.95,39.09-1.43l78,0.03h155.99h155.99h78c13.04,0.48,25.9,0.81,39.09,1.43c6.83,0.69,13.28,4.06,17.63,9.13 c4.39,5.07,6.68,11.76,6.42,18.26c-0.27-6.5-3.07-12.77-7.58-17.16c-4.45-4.48-10.56-7.1-16.68-7.28 c-12.8,0.27-25.93,0.84-38.88,1.25h-78H482.77H326.78l-78,0.03c-12.95-0.39-26.11-0.98-38.88-1.25c-6.12,0.18-12.23,2.8-16.68,7.28 C188.72,1610.71,185.91,1616.95,185.64,1623.45z"/> </g> <g> <g> <linearGradient id="SVGID_47_" gradientUnits="userSpaceOnUse" x1="482.7854" y1="600.8189" x2="482.7854" y2="668.9094" gradientTransform="matrix(1 0 0 -1 0 2374.4785)"> <stop offset="0.0125" style="stop-color:#3C3B3D"/> <stop offset="0.2143" style="stop-color:#4B4B4D"/> <stop offset="0.2891" style="stop-color:#5B5C5E"/> <stop offset="0.8129" style="stop-color:#8E9093"/> <stop offset="1" style="stop-color:#646567"/> </linearGradient> <path class="st51" d="M211.3,1773.66c-18.77,0-34.05-15.28-34.05-34.05c0-18.77,15.28-34.05,34.05-34.05h542.96 c18.77,0,34.05,15.28,34.05,34.05c0,18.77-15.28,34.05-34.05,34.05H211.3z"/> <path class="st8" d="M754.27,1706.94c18.02,0,32.64,14.62,32.64,32.64c0,18.02-14.62,32.64-32.64,32.64H211.3 c-18.02,0-32.64-14.62-32.64-32.64c0-18.02,14.62-32.64,32.64-32.64H754.27L754.27,1706.94z M754.27,1704.14H211.3 c-19.54,0-35.45,15.9-35.45,35.45s15.9,35.45,35.45,35.45h542.96c19.54,0,35.45-15.9,35.45-35.45S773.81,1704.14,754.27,1704.14 L754.27,1704.14z"/> </g> <linearGradient id="SVGID_48_" gradientUnits="userSpaceOnUse" x1="482.7853" y1="608.8454" x2="482.7853" y2="660.8829" gradientTransform="matrix(1 0 0 -1 0 2374.4785)"> <stop offset="0.0193" style="stop-color:#5B5C5E"/> <stop offset="0.8129" style="stop-color:#8E9093"/> </linearGradient> <path class="st52" d="M185.64,1739.61L185.64,1739.61c0-14.35,11.64-26.02,26.02-26.02h542.25c14.35,0,26.02,11.64,26.02,26.02l0,0 c0,14.35-11.64,26.02-26.02,26.02H211.66C197.28,1765.6,185.64,1753.97,185.64,1739.61z"/> <path class="st10" d="M185.64,1739.61c-0.27-6.5,2-13.19,6.39-18.26c4.39-5.07,10.8-8.44,17.66-9.13 c13.22-0.63,26.05-0.95,39.09-1.43l78,0.03h155.99h155.99h78c13.04,0.48,25.9,0.81,39.09,1.43c6.83,0.69,13.28,4.06,17.63,9.13 c4.39,5.07,6.68,11.76,6.42,18.26c-0.27-6.5-3.07-12.77-7.58-17.16c-4.45-4.48-10.56-7.1-16.68-7.28 c-12.8,0.27-25.93,0.84-38.88,1.25h-78H482.77H326.78l-78,0.03c-12.95-0.39-26.11-0.98-38.88-1.25c-6.12,0.18-12.23,2.8-16.68,7.28 C188.72,1726.84,185.91,1733.08,185.64,1739.61z"/> </g> <g> <g> <linearGradient id="SVGID_49_" gradientUnits="userSpaceOnUse" x1="482.7704" y1="473.4996" x2="482.7704" y2="541.5901" gradientTransform="matrix(1 0 0 -1 0 2374.4785)"> <stop offset="0.0125" style="stop-color:#3C3B3D"/> <stop offset="0.2143" style="stop-color:#4B4B4D"/> <stop offset="0.2891" style="stop-color:#5B5C5E"/> <stop offset="0.8129" style="stop-color:#8E9093"/> <stop offset="1" style="stop-color:#646567"/> </linearGradient> <path class="st53" d="M223.89,1900.98c-18.77,0-34.05-15.28-34.05-34.05c0-18.77,15.28-34.05,34.05-34.05h517.75 c18.77,0,34.05,15.28,34.05,34.05c0,18.77-15.28,34.05-34.05,34.05H223.89z"/> <path class="st8" d="M741.65,1834.29c18.02,0,32.64,14.62,32.64,32.64l0,0c0,18.02-14.62,32.64-32.64,32.64H223.89 c-18.02,0-32.64-14.62-32.64-32.64l0,0c0-18.02,14.62-32.64,32.64-32.64H741.65L741.65,1834.29z M741.65,1831.49H223.89 c-19.54,0-35.45,15.9-35.45,35.45s15.9,35.45,35.45,35.45h517.78c19.54,0,35.45-15.9,35.45-35.45S761.22,1831.49,741.65,1831.49 L741.65,1831.49z"/> </g> <linearGradient id="SVGID_50_" gradientUnits="userSpaceOnUse" x1="482.7853" y1="481.5261" x2="482.7853" y2="533.5636" gradientTransform="matrix(1 0 0 -1 0 2374.4785)"> <stop offset="0.0193" style="stop-color:#5B5C5E"/> <stop offset="0.8129" style="stop-color:#8E9093"/> </linearGradient> <path class="st54" d="M198.23,1866.93L198.23,1866.93c0-14.35,11.64-26.02,26.02-26.02h517.07c14.35,0,26.02,11.64,26.02,26.02l0,0 c0,14.35-11.64,26.02-26.02,26.02H224.25C209.87,1892.95,198.23,1881.32,198.23,1866.93z"/> <path class="st10" d="M198.23,1866.93c-0.24-6.24,1.82-12.65,5.88-17.63c4.03-5.01,10.03-8.53,16.53-9.55 c3.34-0.51,6.42-0.45,9.52-0.6l9.37-0.33l18.71-0.69l74.83-0.03h149.7h149.7h74.83l18.71,0.66l9.37,0.33 c3.1,0.15,6.21,0.09,9.55,0.6c6.53,1.01,12.5,4.57,16.53,9.58c4.06,5.01,6.12,11.4,5.88,17.63c-0.27-6.24-2.86-12.23-7.07-16.59 c-4.15-4.42-9.85-7.22-15.72-7.7c-2.86-0.24-6.03,0.03-9.16,0.09l-9.37,0.33l-18.71,0.66h-74.83h-149.7h-149.7l-74.83-0.03 l-18.71-0.69l-9.37-0.33c-3.1-0.09-6.3-0.36-9.16-0.09c-5.88,0.48-11.58,3.31-15.72,7.73C201.1,1854.7,198.5,1860.7,198.23,1866.93 z"/> </g> <g> <g> <linearGradient id="SVGID_51_" gradientUnits="userSpaceOnUse" x1="482.7854" y1="356.8622" x2="482.7854" y2="424.9527" gradientTransform="matrix(1 0 0 -1 0 2374.4785)"> <stop offset="0.0125" style="stop-color:#3C3B3D"/> <stop offset="0.2143" style="stop-color:#4B4B4D"/> <stop offset="0.2891" style="stop-color:#5B5C5E"/> <stop offset="0.8129" style="stop-color:#8E9093"/> <stop offset="1" style="stop-color:#646567"/> </linearGradient> <path class="st55" d="M243.5,2017.62c-18.77,0-34.05-15.28-34.05-34.05c0-18.77,15.28-34.05,34.05-34.05h478.57 c18.77,0,34.05,15.28,34.05,34.05c0,18.77-15.28,34.05-34.05,34.05H243.5z"/> <path class="st8" d="M722.07,1950.9c18.02,0,32.64,14.62,32.64,32.64l0,0c0,18.02-14.62,32.64-32.64,32.64H243.5 c-18.02,0-32.64-14.62-32.64-32.64l0,0c0-18.02,14.62-32.64,32.64-32.64H722.07L722.07,1950.9z M722.07,1948.09H243.5 c-19.54,0-35.45,15.9-35.45,35.45s15.9,35.45,35.45,35.45h478.57c19.54,0,35.45-15.9,35.45-35.45S741.62,1948.09,722.07,1948.09 L722.07,1948.09z"/> </g> <linearGradient id="SVGID_52_" gradientUnits="userSpaceOnUse" x1="482.7853" y1="364.8889" x2="482.7853" y2="416.9264" gradientTransform="matrix(1 0 0 -1 0 2374.4785)"> <stop offset="0.0193" style="stop-color:#5B5C5E"/> <stop offset="0.8129" style="stop-color:#8E9093"/> </linearGradient> <path class="st56" d="M217.84,1983.57L217.84,1983.57c0-14.35,11.64-26.02,26.02-26.02h477.86c14.35,0,26.02,11.64,26.02,26.02l0,0 c0,14.35-11.64,26.02-26.02,26.02H243.83C229.47,2009.56,217.84,1997.92,217.84,1983.57z"/> <path class="st10" d="M217.84,1983.57c-0.18-5.82,1.49-11.82,5.1-16.65c3.58-4.8,8.83-8.47,14.77-10c2.95-0.81,6.15-0.95,8.98-1.01 l8.74-0.33l17.49-0.69c23.3-0.21,46.64-0.06,69.94-0.12h139.88h139.88l69.94,0.09l17.49,0.69l8.74,0.33 c2.83,0.09,6.06,0.24,9.01,1.04c5.97,1.52,11.22,5.22,14.8,10.03c3.61,4.83,5.28,10.83,5.1,16.65c-0.3-5.82-2.48-11.49-6.27-15.72 c-3.73-4.27-8.8-7.28-14.23-8.27c-2.75-0.51-5.4-0.48-8.38-0.33l-8.74,0.33l-17.49,0.69l-69.94,0.09H482.77H342.89 c-23.3-0.06-46.64,0.12-69.94-0.12l-17.49-0.69l-8.74-0.33c-2.98-0.15-5.64-0.21-8.38,0.33c-5.46,0.98-10.5,4.03-14.23,8.27 C220.31,1972.08,218.14,1977.72,217.84,1983.57z"/> </g> <path class="st43" d="M131.96,1760.71l-2.33-42.4l-2.09-42.4l-4.12-84.8l-1.82-84.83l-0.48-21.21c-0.06-3.61-0.21-6.89-0.18-10.77 c0.06-3.85,0.48-7.7,1.28-11.46c3.19-15.16,13.16-28.82,27-36.13c6.89-3.67,14.65-5.7,22.44-5.88l21.33-0.03h42.43h84.86h169.72 h169.72h84.86h42.43h10.62c1.7,0,3.67,0,5.64,0.12c1.94,0.12,3.88,0.36,5.79,0.75c7.7,1.37,15.01,4.68,21.24,9.34 c12.5,9.34,20.35,24.29,21.39,39.68c0.15,1.91,0.18,3.85,0.15,5.76l-0.12,5.31l-0.24,10.59l-0.48,21.21l-1.79,84.86l-4.15,84.8 l-2.06,42.4l-2.27,42.4l-0.42-42.46l-0.21-42.46l-0.42-84.89l1.85-84.83l0.48-21.21l0.24-10.59l0.12-5.31 c0.03-1.61-0.03-3.22-0.12-4.83c-0.9-12.86-7.4-25.12-17.63-32.79c-5.1-3.79-11.01-6.47-17.25-7.58c-1.55-0.3-3.13-0.51-4.71-0.6 c-1.58-0.12-3.13-0.12-4.98-0.12h-10.62h-42.43H659.8H490.08H320.36H235.5h-42.43l-21.1,0.03c-6.36,0.15-12.62,1.79-18.23,4.77 c-11.25,5.94-19.54,17.22-22.17,29.75c-0.69,3.13-1.04,6.36-1.07,9.58c-0.03,3.19,0.12,6.98,0.18,10.44l0.48,21.21l1.91,84.83 l-0.39,84.89l-0.21,42.46L131.96,1760.71z"/> <path class="st44" d="M834.14,1837.81l-20.23,127.71l-5.19,31.9c-0.9,5.31-1.61,10.59-2.83,15.99c-0.45,2.72-1.37,5.31-2.15,7.94 c-0.69,2.66-1.85,5.16-2.86,7.73c-4.27,10.12-10.44,19.45-18.08,27.39c-7.67,7.91-16.86,14.35-26.91,18.89 c-10.06,4.57-20.98,7.22-32.02,7.76l-4.15,0.21h-4.03l-8.09,0.03l-16.17,0.03l-64.66,0.12l-129.29,0.24l-129.29-0.24l-64.66-0.12 l-32.31-0.06l-8.09-0.06c-2.72-0.03-5.52-0.24-8.27-0.36c-2.75-0.3-5.49-0.72-8.21-1.1c-2.69-0.66-5.4-1.16-8.06-1.94 c-21.24-6.12-39.86-20.38-51.47-39.09c-5.82-9.31-9.7-19.84-11.85-30.52l-6.62-31.63l-25.96-126.66l28.64,126.1l7.01,31.54 c2.24,10.41,6.03,20.38,11.76,29.3c11.34,17.81,29.36,31.24,49.62,36.82c2.54,0.69,5.13,1.16,7.67,1.73 c2.6,0.33,5.19,0.72,7.82,0.95c2.63,0.09,5.22,0.24,7.88,0.27l8.09-0.06l32.31-0.06l64.66-0.12l129.29-0.24l129.29,0.24l64.66,0.12 l16.17,0.03l8.09,0.03h4.03l3.94-0.15c10.47-0.42,20.86-2.8,30.49-7.01c9.61-4.21,18.47-10.23,25.9-17.72 c7.4-7.49,13.43-16.35,17.63-26.05c0.98-2.45,2.15-4.83,2.83-7.4c0.78-2.54,1.67-5.01,2.15-7.61c1.25-5.1,2.03-10.5,2.98-15.78 l5.58-31.84L834.14,1837.81z"/> <path class="st43" d="M2213.11,2038.8l-2.12-354.9l-1.28-354.89v-0.15l0.03-0.18c20.02-200.51,41.03-400.94,61.62-601.39 l15.52-150.32l7.76-75.16l3.91-37.6l1.97-18.8c0.3-3.1,0.66-6.24,1.19-9.55l0.75-4.89c0.27-1.64,0.75-3.19,1.13-4.8 c6.12-25.69,22.47-48.7,44.64-62.96c11.04-7.19,23.48-12.23,36.4-14.8c3.22-0.63,6.5-0.98,9.76-1.46c3.28-0.33,6.56-0.36,9.85-0.54 c6.39-0.09,12.62,0,18.95-0.03l151.13,0.18l151.13,0.18l37.77,0.03c13.1-0.24,26.5,2.89,38.34,8.71 c11.97,5.79,22.17,14.86,30.02,25.48c7.76,10.77,12.71,23.45,14.65,36.52c0.39,3.25,0.66,6.62,0.84,9.82l0.33,9.43l0.63,18.89 l1.22,37.78l2.45,75.52l4.86,151.07c3.19,100.7,6.5,201.41,9.28,302.14l4.21,151.07c1.31,50.37,2.72,100.73,3.22,151.1 c-1.22-50.37-3.49-100.7-5.25-151.04l-5.85-151.01l-11.73-302.05l-5.88-151.01l-2.95-75.52l-1.49-37.75l-0.75-18.89l-0.36-9.43 c-0.21-3.07-0.45-6-0.78-8.98c-1.79-11.82-6.3-23.21-13.28-32.88c-7.1-9.55-16.29-17.69-27.06-22.89 c-10.74-5.22-22.56-8.03-34.67-7.76l-37.77,0.03l-151.13,0.18l-151.13,0.18c-6.27,0.03-12.65-0.03-18.86,0.06 c-3.01,0.18-6.03,0.21-9.01,0.51c-2.95,0.48-5.97,0.78-8.92,1.34c-11.79,2.36-23.09,6.98-33.15,13.55 c-20.17,13.07-35,34.05-40.52,57.44c-0.33,1.46-0.81,2.89-1.01,4.39l-0.66,4.45c-0.51,2.89-0.84,6.03-1.13,9.19l-1.94,18.8 l-3.94,37.57l-7.91,75.16l-15.84,150.29c-21.21,200.39-41.98,400.85-63.76,601.18l0.03-0.36l-1.28,354.89L2213.11,2038.8z"/> <path class="st44" d="M2873.22,1324.27l1.37,186.01l0.78,186.01l0.39,186.01l0.12,93.01l0.06,46.52l0.03,11.64 c0,1.94,0.03,3.85-0.03,5.82l-0.3,5.97c-0.33,7.97-2.03,15.81-4.15,23.48c-4.71,15.25-13.13,29.24-24.11,40.76 c-10.89,11.64-24.83,20.26-39.77,25.6c-3.7,1.52-7.61,2.3-11.46,3.34c-1.91,0.57-3.91,0.78-5.85,1.1l-5.91,0.9 c-3.94,0.24-7.97,0.48-11.88,0.57l-11.64-0.03l-46.52-0.06l-186.01-0.39l-186.01-0.78l-23.24-0.18l-5.82-0.03 c-1.94-0.06-3.91-0.21-5.88-0.3c-1.94-0.15-3.91-0.15-5.85-0.42l-5.79-0.93c-3.91-0.45-7.61-1.76-11.43-2.69 c-1.91-0.42-3.7-1.28-5.55-1.91c-1.82-0.69-3.67-1.34-5.49-2.09c-7.07-3.34-13.99-7.04-20.14-11.88 c-12.44-9.37-22.86-21.54-29.63-35.57c-6.89-13.93-10.5-29.45-10.47-44.97c0.18,15.52,4.03,30.91,11.07,44.64 c6.92,13.82,17.43,25.72,29.84,34.79c6.12,4.68,13.01,8.21,19.99,11.4c1.79,0.72,3.61,1.31,5.4,1.97c1.82,0.6,3.58,1.43,5.46,1.79 c3.73,0.84,7.4,2.09,11.22,2.48l5.7,0.84c1.91,0.24,3.82,0.21,5.73,0.33c1.91,0.06,3.82,0.21,5.76,0.21l5.82-0.03l23.24-0.18 l186.01-0.78l186.01-0.39l46.52-0.06l11.64-0.03c3.82-0.12,7.55-0.33,11.34-0.57l5.58-0.87c1.85-0.3,3.73-0.51,5.55-1.04 c3.64-1.01,7.34-1.73,10.83-3.19c14.14-5.13,27.33-13.31,37.6-24.35c10.35-10.95,18.26-24.2,22.71-38.61 c2-7.25,3.64-14.65,3.97-22.2l0.3-5.64c0.06-1.91,0.03-3.88,0.03-5.79l0.03-11.64l0.06-46.52l0.12-93.01l0.39-186.01l0.78-186.01 L2873.22,1324.27z"/> </svg>